<svg width="88" height="45" viewBox="0 0 88 45" fill="none" xmlns="http://www.w3.org/2000/svg">
<g clip-path="url(#clip0_2008_508)">
<path d="M35.4132 11.0128H48.2956L46.3045 18.547C46.0234 19.5342 45.4228 20.4037 44.5939 21.0233C43.7643 21.6542 42.7418 21.9886 41.6941 21.9717H35.7473C34.4386 21.9497 33.1612 22.3679 32.1258 23.1571C31.0678 23.9665 30.2999 25.088 29.9342 26.3579C29.6715 27.294 29.6394 28.2784 29.8407 29.2293C30.0417 30.0902 30.4191 30.9015 30.9499 31.6134C31.4926 32.3197 32.198 32.8886 33.0078 33.273C33.8592 33.6879 34.7976 33.9 35.7473 33.8921H39.3555C40.0178 33.8793 40.6454 34.1838 41.0393 34.7088C41.4603 35.2171 41.5957 35.8992 41.4001 36.5265L39.1283 44.851H35.1192C32.4927 44.8767 29.8999 44.2661 27.5689 43.0728C25.3399 41.9604 23.3869 40.3774 21.8493 38.4364C20.3312 36.496 19.2719 34.2459 18.749 31.8505C18.1887 29.3122 18.2575 26.678 18.9495 24.1714L19.1766 23.2625C19.6577 21.4929 20.4345 19.8147 21.4752 18.2968C22.4987 16.8248 23.7526 15.5221 25.1902 14.4374C26.6273 13.3505 28.2341 12.5008 29.9476 11.9216C31.7038 11.3144 33.5521 11.0071 35.4132 11.0128ZM41.9212 44.9037L53.1198 3.42585C53.4009 2.42105 54.0118 1.53636 54.8571 0.910044C55.686 0.266814 56.7155 -0.0730166 57.7703 -0.0514939H69.6772C72.284 -0.0673975 74.856 0.538138 77.1741 1.71352C81.7383 3.99935 85.0167 8.18849 86.1008 13.1203C86.6648 15.6552 86.5867 18.2881 85.8737 20.7862L85.6465 21.6292C85.167 23.4012 84.395 25.0832 83.3613 26.6081C82.363 28.1139 81.1216 29.4486 79.6864 30.5597C76.7524 32.7874 73.1535 33.996 69.45 33.9975H59.1334L61.1379 26.292C61.4154 25.3066 62.0112 24.4373 62.8351 23.8157C63.6691 23.182 64.6953 22.8433 65.7483 22.8542H69.156C71.892 22.8483 74.2726 21.007 74.929 18.389C75.1884 17.4923 75.216 16.546 75.0092 15.6361C74.8141 14.7732 74.4361 13.9608 73.9 13.252C73.3395 12.561 72.6326 11.9991 71.8287 11.6055C71.0016 11.1864 70.0859 10.9653 69.156 10.9601H62.7281L54.4562 41.4659C54.169 42.4502 53.5695 43.318 52.7456 43.9422C51.9362 44.5739 50.9317 44.9133 49.8992 44.9037H41.9212ZM113.001 22.762L113.175 22.1429C113.26 21.8801 113.205 21.5928 113.028 21.379C112.863 21.1563 112.6 21.0243 112.32 21.0233H93.7982C91.5784 21.0325 89.6578 19.5028 89.2012 17.3616C89.0345 16.642 89.0345 15.8946 89.2012 15.1751L90.3504 10.9074H115.46C116.945 10.8863 118.412 11.2352 119.723 11.9216C120.978 12.5583 122.078 13.4573 122.944 14.556C123.81 15.6579 124.417 16.9356 124.721 18.2968C125.042 19.7324 125.01 21.2226 124.628 22.6434L120.124 39.174C119.226 42.5358 116.128 44.8681 112.601 44.8379L94.0788 44.7325C90.9965 44.7553 122.72 38.9382 120.845 36.5265C119.959 35.3533 121.156 37.9571 120.845 36.5265C120.498 35.0308 111.187 29.3244 111.605 27.8463L117.351 33.273C141.352 30.3226 132.977 26.2657 119.723 26.292C149.123 22.5776 119.723 27.9648 88.2657 26.3842C89.1147 25.7709 90.0575 25.2951 91.0587 24.9748C92.103 24.619 93.2011 24.4408 94.306 24.448H109.861L108.725 28.6629C108.44 29.6481 107.84 30.5163 107.015 31.1392C106.202 31.7634 105.199 32.0977 104.168 32.0876H97.2192C96.6176 32.0514 96.0837 32.4645 95.9764 33.0491C95.8522 33.4276 95.9384 33.8426 96.2036 34.1424C96.4476 34.4492 96.8238 34.6249 97.2192 34.6166H108.445C108.834 34.6222 109.214 34.502 109.527 34.2741C109.828 34.0596 110.034 33.7388 110.102 33.3784L110.209 32.9306L113.001 22.762ZM146.183 11.0128C148.827 10.9833 151.438 11.5939 153.787 12.791C156.026 13.917 157.984 15.5184 159.52 17.4801C161.052 19.4513 162.112 21.7389 162.62 24.1714C163.176 26.7172 163.089 29.3588 162.366 31.8637L159.52 42.4011C159.346 43.1264 158.909 43.7638 158.29 44.1924C157.695 44.6395 156.967 44.8803 156.219 44.8774H150.058C148.648 44.904 147.614 43.5797 148 42.243L151.421 29.4928C151.685 28.5972 151.717 27.6508 151.515 26.7399C151.318 25.8753 150.935 25.0623 150.392 24.3558C149.253 22.8854 147.486 22.0192 145.608 22.0112H139.221L133.701 42.4274C133.522 43.1503 133.086 43.786 132.472 44.2188C131.856 44.6743 131.104 44.9153 130.334 44.9037H124.227C123.587 44.8975 122.988 44.5949 122.61 44.0871C122.177 43.5792 122.036 42.8895 122.236 42.2562L130.628 11.0128H146.183ZM179.752 21.7214C179.308 22.0591 178.974 22.5168 178.79 23.0386L176.224 32.5881C176.067 33.0913 176.172 33.6384 176.505 34.0502C176.814 34.4731 177.312 34.7231 177.841 34.7219H201.454L199.623 41.4C199.342 42.3868 198.741 43.2561 197.913 43.8763C197.105 44.51 196.099 44.8495 195.066 44.8379H173.605C172.119 44.8566 170.651 44.5174 169.328 43.85C168.07 43.2183 166.97 42.3185 166.108 41.2156C165.252 40.0981 164.646 38.814 164.331 37.4485C164.013 36.0233 164.063 34.5423 164.478 33.1413L167.952 20.3911C168.326 19.0298 168.927 17.7389 169.729 16.5713C171.281 14.2796 173.554 12.5535 176.197 11.6582C177.539 11.1849 178.955 10.9443 180.38 10.9469H195.601C197.09 10.932 198.559 11.2805 199.877 11.9611C201.132 12.5982 202.231 13.4972 203.098 14.5955C203.967 15.6958 204.562 16.9814 204.835 18.3494C205.14 19.7827 205.104 21.2661 204.728 22.683L203.699 26.5028C203.283 28.134 202.305 29.5724 200.933 30.5728C199.587 31.5975 197.93 32.145 196.229 32.1271H179.017L180.153 27.9648C180.403 26.9774 180.987 26.1037 181.81 25.4885C182.64 24.8577 183.662 24.5233 184.71 24.5402H191.672C192.275 24.5714 192.81 24.162 192.928 23.5786L193.155 22.7356C193.36 21.9211 192.75 21.128 191.899 21.1023H181.302C180.728 21.1227 180.179 21.3419 179.752 21.7214ZM201.454 44.9037L212.92 2.47748C213.1 1.74753 213.529 1.1009 214.136 0.646609C214.752 0.189009 215.503 -0.0562884 216.274 -0.0514939H222.381C223.06 -0.0682207 223.705 0.235215 224.119 0.765155C224.535 1.27626 224.661 1.96028 224.453 2.58286L215.9 33.8921C215.495 35.4949 214.807 37.0151 213.869 38.3837C212.968 39.7049 211.853 40.8709 210.568 41.8347C209.283 42.8046 207.848 43.5649 206.319 44.0871C204.755 44.6275 203.111 44.9036 201.454 44.9037Z" fill="#F26C32"/>
</g>
<defs>
<clipPath id="clip0_2008_508">
<rect width="87.4416" height="44.6713" fill="white" transform="scale(1.00639)"/>
</clipPath>
</defs>
</svg>
