<svg width="775" height="63" viewBox="0 0 775 63" fill="none" xmlns="http://www.w3.org/2000/svg">
<path d="M6.42028 21.2109C9.46041 21.2109 10.9805 20.1709 10.9805 18.0908C10.9805 17.4508 10.8405 16.9107 10.5605 16.4707C10.3004 16.0107 9.94043 15.6207 9.48041 15.3007C9.02039 14.9607 8.49037 14.6707 7.89035 14.4306C7.31032 14.1906 6.69029 13.9506 6.03027 13.7106C5.27023 13.4506 4.5502 13.1606 3.87017 12.8406C3.19015 12.5006 2.60012 12.1105 2.1001 11.6705C1.60008 11.2105 1.20006 10.6705 0.900048 10.0505C0.620036 9.43043 0.48003 8.6804 0.48003 7.80036C0.48003 5.98028 1.10006 4.56022 2.34011 3.54018C3.58016 2.52013 5.29023 2.01011 7.47033 2.01011C8.73038 2.01011 9.87043 2.15012 10.8905 2.43013C11.9305 2.69014 12.6906 2.98016 13.1706 3.30017L12.2405 5.67027C11.8205 5.41026 11.1905 5.16025 10.3505 4.92024C9.53042 4.66023 8.57037 4.53022 7.47033 4.53022C6.9103 4.53022 6.39028 4.59022 5.91026 4.71023C5.43024 4.83023 5.01022 5.01024 4.65021 5.25025C4.29019 5.49026 4.00018 5.80027 3.78017 6.18029C3.58016 6.54031 3.48016 6.97032 3.48016 7.47035C3.48016 8.03037 3.59016 8.50039 3.81017 8.88041C4.03018 9.26042 4.34019 9.60044 4.74021 9.90045C5.14023 10.1805 5.60025 10.4405 6.12027 10.6805C6.66029 10.9205 7.25032 11.1605 7.89035 11.4005C8.79038 11.7605 9.61042 12.1205 10.3505 12.4806C11.1105 12.8406 11.7605 13.2706 12.3005 13.7706C12.8606 14.2706 13.2906 14.8707 13.5906 15.5707C13.8906 16.2507 14.0406 17.0808 14.0406 18.0608C14.0406 19.8809 13.3706 21.2809 12.0305 22.261C10.7105 23.241 8.84039 23.731 6.42028 23.731C5.60025 23.731 4.84022 23.671 4.14019 23.551C3.46016 23.451 2.85013 23.331 2.31011 23.191C1.77009 23.031 1.30007 22.871 0.900048 22.711C0.520032 22.531 0.220019 22.381 9.76068e-06 22.261L0.870047 19.8609C1.33007 20.1209 2.0301 20.4109 2.97014 20.7309C3.91018 21.0509 5.06023 21.2109 6.42028 21.2109ZM22.6578 21.2709C23.3178 21.2709 23.8978 21.2609 24.3978 21.2409C24.9179 21.2009 25.3479 21.1409 25.6879 21.0609V16.4107C25.4879 16.3107 25.1579 16.2307 24.6979 16.1707C24.2578 16.0907 23.7178 16.0507 23.0778 16.0507C22.6578 16.0507 22.2078 16.0807 21.7277 16.1407C21.2677 16.2007 20.8377 16.3307 20.4377 16.5307C20.0577 16.7107 19.7376 16.9708 19.4776 17.3108C19.2176 17.6308 19.0876 18.0608 19.0876 18.6008C19.0876 19.6009 19.4076 20.3009 20.0477 20.7009C20.6877 21.0809 21.5577 21.2709 22.6578 21.2709ZM22.4178 7.29034C23.5378 7.29034 24.4778 7.44034 25.2379 7.74036C26.0179 8.02037 26.6379 8.43039 27.098 8.97041C27.578 9.49043 27.918 10.1205 28.118 10.8605C28.318 11.5805 28.418 12.3806 28.418 13.2606V23.011C28.178 23.051 27.838 23.111 27.398 23.191C26.978 23.251 26.4979 23.311 25.9579 23.371C25.4179 23.431 24.8279 23.481 24.1878 23.521C23.5678 23.581 22.9478 23.611 22.3278 23.611C21.4477 23.611 20.6377 23.521 19.8977 23.341C19.1576 23.161 18.5176 22.881 17.9776 22.501C17.4375 22.101 17.0175 21.5809 16.7175 20.9409C16.4175 20.3009 16.2675 19.5309 16.2675 18.6308C16.2675 17.7708 16.4375 17.0308 16.7775 16.4107C17.1375 15.7907 17.6176 15.2907 18.2176 14.9107C18.8176 14.5306 19.5176 14.2506 20.3177 14.0706C21.1177 13.8906 21.9577 13.8006 22.8378 13.8006C23.1178 13.8006 23.4078 13.8206 23.7078 13.8606C24.0078 13.8806 24.2878 13.9206 24.5479 13.9806C24.8279 14.0206 25.0679 14.0606 25.2679 14.1006C25.4679 14.1406 25.6079 14.1706 25.6879 14.1906V13.4106C25.6879 12.9506 25.6379 12.5006 25.5379 12.0605C25.4379 11.6005 25.2579 11.2005 24.9979 10.8605C24.7379 10.5005 24.3778 10.2205 23.9178 10.0205C23.4778 9.80045 22.8978 9.69044 22.1778 9.69044C21.2577 9.69044 20.4477 9.76044 19.7476 9.90045C19.0676 10.0205 18.5576 10.1505 18.2176 10.2905L17.8876 7.98037C18.2476 7.82036 18.8476 7.67036 19.6876 7.53035C20.5277 7.37034 21.4377 7.29034 22.4178 7.29034ZM44.7931 7.68035C44.0131 10.6005 43.093 13.4006 42.033 16.0807C40.9929 18.7608 39.9829 21.1609 39.0028 23.281H36.4827C35.5027 21.1609 34.4826 18.7608 33.4226 16.0807C32.3826 13.4006 31.4725 10.6005 30.6925 7.68035H33.6926C33.9326 8.6604 34.2126 9.71044 34.5327 10.8305C34.8727 11.9305 35.2227 13.0306 35.5827 14.1306C35.9627 15.2107 36.3427 16.2607 36.7227 17.2808C37.1028 18.3008 37.4628 19.2108 37.8028 20.0109C38.1428 19.2108 38.5028 18.3008 38.8828 17.2808C39.2629 16.2607 39.6329 15.2107 39.9929 14.1306C40.3729 13.0306 40.7229 11.9305 41.0429 10.8305C41.3829 9.71044 41.673 8.6604 41.913 7.68035H44.7931ZM46.3916 15.5107C46.3916 14.1306 46.5916 12.9306 46.9916 11.9105C47.3916 10.8705 47.9217 10.0105 48.5817 9.33043C49.2417 8.6504 50.0017 8.14037 50.8618 7.80036C51.7218 7.46035 52.6019 7.29034 53.5019 7.29034C55.602 7.29034 57.2121 7.95037 58.3321 9.27042C59.4521 10.5705 60.0122 12.5606 60.0122 15.2407C60.0122 15.3607 60.0122 15.5207 60.0122 15.7207C60.0122 15.9007 60.0022 16.0707 59.9822 16.2307H49.3017C49.4217 17.8508 49.8917 19.0808 50.7118 19.9209C51.5318 20.7609 52.8119 21.1809 54.5519 21.1809C55.532 21.1809 56.352 21.1009 57.012 20.9409C57.6921 20.7609 58.2021 20.5909 58.5421 20.4309L58.9321 22.771C58.5921 22.951 57.9921 23.141 57.132 23.341C56.292 23.541 55.332 23.641 54.2519 23.641C52.8919 23.641 51.7118 23.441 50.7118 23.041C49.7317 22.621 48.9217 22.051 48.2817 21.3309C47.6416 20.6109 47.1616 19.7609 46.8416 18.7808C46.5416 17.7808 46.3916 16.6907 46.3916 15.5107ZM57.102 13.9806C57.122 12.7206 56.802 11.6905 56.142 10.8905C55.502 10.0705 54.6119 9.66044 53.4719 9.66044C52.8319 9.66044 52.2618 9.79044 51.7618 10.0505C51.2818 10.2905 50.8718 10.6105 50.5318 11.0105C50.1918 11.4105 49.9217 11.8705 49.7217 12.3906C49.5417 12.9106 49.4217 13.4406 49.3617 13.9806H57.102ZM70.9638 23.281V0.480048L73.7539 2.86114e-05V7.98037C74.274 7.78036 74.824 7.63035 75.404 7.53035C76.004 7.41034 76.594 7.35034 77.1741 7.35034C78.4141 7.35034 79.4442 7.53035 80.2642 7.89036C81.0842 8.23038 81.7343 8.7204 82.2143 9.36043C82.7143 9.98045 83.0643 10.7305 83.2643 11.6105C83.4643 12.4906 83.5643 13.4606 83.5643 14.5206V23.281H80.7742V15.1207C80.7742 14.1606 80.7042 13.3406 80.5642 12.6606C80.4442 11.9805 80.2342 11.4305 79.9342 11.0105C79.6342 10.5905 79.2342 10.2905 78.7341 10.1105C78.2341 9.91045 77.6141 9.81045 76.8741 9.81045C76.574 9.81045 76.264 9.83045 75.944 9.87045C75.624 9.91045 75.314 9.96045 75.014 10.0205C74.734 10.0605 74.474 10.1105 74.2339 10.1705C74.0139 10.2305 73.8539 10.2805 73.7539 10.3205V23.281H70.9638ZM101.874 15.4807C101.874 16.7207 101.694 17.8408 101.334 18.8408C100.974 19.8409 100.464 20.7009 99.8037 21.4209C99.1637 22.141 98.3936 22.701 97.4936 23.101C96.5936 23.481 95.6135 23.671 94.5535 23.671C93.4934 23.671 92.5134 23.481 91.6134 23.101C90.7133 22.701 89.9333 22.141 89.2733 21.4209C88.6332 20.7009 88.1332 19.8409 87.7732 18.8408C87.4132 17.8408 87.2332 16.7207 87.2332 15.4807C87.2332 14.2606 87.4132 13.1506 87.7732 12.1505C88.1332 11.1305 88.6332 10.2605 89.2733 9.54043C89.9333 8.8204 90.7133 8.27038 91.6134 7.89036C92.5134 7.49035 93.4934 7.29034 94.5535 7.29034C95.6135 7.29034 96.5936 7.49035 97.4936 7.89036C98.3936 8.27038 99.1637 8.8204 99.8037 9.54043C100.464 10.2605 100.974 11.1305 101.334 12.1505C101.694 13.1506 101.874 14.2606 101.874 15.4807ZM98.9637 15.4807C98.9637 13.7206 98.5637 12.3306 97.7636 11.3105C96.9836 10.2705 95.9135 9.75044 94.5535 9.75044C93.1934 9.75044 92.1134 10.2705 91.3133 11.3105C90.5333 12.3306 90.1433 13.7206 90.1433 15.4807C90.1433 17.2408 90.5333 18.6408 91.3133 19.6809C92.1134 20.7009 93.1934 21.2109 94.5535 21.2109C95.9135 21.2109 96.9836 20.7009 97.7636 19.6809C98.5637 18.6408 98.9637 17.2408 98.9637 15.4807ZM118.22 22.831C117.58 22.991 116.73 23.161 115.67 23.341C114.63 23.521 113.42 23.611 112.04 23.611C110.839 23.611 109.829 23.441 109.009 23.101C108.189 22.741 107.529 22.241 107.029 21.6009C106.529 20.9609 106.169 20.2109 105.949 19.3509C105.729 18.4708 105.619 17.5008 105.619 16.4407V7.68035H108.409V15.8407C108.409 17.7408 108.709 19.1008 109.309 19.9209C109.909 20.7409 110.919 21.1509 112.34 21.1509C112.64 21.1509 112.95 21.1409 113.27 21.1209C113.59 21.1009 113.89 21.0809 114.17 21.0609C114.45 21.0209 114.7 20.9909 114.92 20.9709C115.16 20.9309 115.33 20.8909 115.43 20.8509V7.68035H118.22V22.831ZM128.787 7.35034C129.027 7.35034 129.297 7.37034 129.597 7.41034C129.917 7.43034 130.227 7.47035 130.527 7.53035C130.827 7.57035 131.097 7.62035 131.337 7.68035C131.597 7.72036 131.787 7.76036 131.907 7.80036L131.427 10.2305C131.207 10.1505 130.837 10.0605 130.317 9.96045C129.817 9.84045 129.167 9.78044 128.367 9.78044C127.847 9.78044 127.327 9.84045 126.807 9.96045C126.307 10.0605 125.977 10.1305 125.817 10.1705V23.281H123.027V8.34038C123.687 8.10037 124.507 7.88036 125.487 7.68035C126.467 7.46035 127.567 7.35034 128.787 7.35034ZM138.229 21.2709C139.37 21.2709 140.21 21.1209 140.75 20.8209C141.31 20.5209 141.59 20.0409 141.59 19.3809C141.59 18.7008 141.32 18.1608 140.78 17.7608C140.24 17.3608 139.35 16.9107 138.109 16.4107C137.509 16.1707 136.929 15.9307 136.369 15.6907C135.829 15.4307 135.359 15.1307 134.959 14.7907C134.559 14.4506 134.239 14.0406 133.999 13.5606C133.759 13.0806 133.639 12.4906 133.639 11.7905C133.639 10.4105 134.149 9.32043 135.169 8.52039C136.189 7.70036 137.579 7.29034 139.34 7.29034C139.78 7.29034 140.22 7.32034 140.66 7.38034C141.1 7.42034 141.51 7.48035 141.89 7.56035C142.27 7.62035 142.6 7.69036 142.88 7.77036C143.18 7.85036 143.41 7.92037 143.57 7.98037L143.06 10.3805C142.76 10.2205 142.29 10.0605 141.65 9.90045C141.01 9.72044 140.24 9.63044 139.34 9.63044C138.559 9.63044 137.879 9.79045 137.299 10.1105C136.719 10.4105 136.429 10.8905 136.429 11.5505C136.429 11.8905 136.489 12.1905 136.609 12.4506C136.749 12.7106 136.949 12.9506 137.209 13.1706C137.489 13.3706 137.829 13.5606 138.229 13.7406C138.629 13.9206 139.11 14.1106 139.67 14.3106C140.41 14.5906 141.07 14.8707 141.65 15.1507C142.23 15.4107 142.72 15.7207 143.12 16.0807C143.54 16.4407 143.86 16.8807 144.08 17.4008C144.3 17.9008 144.41 18.5208 144.41 19.2608C144.41 20.7009 143.87 21.791 142.79 22.531C141.73 23.271 140.21 23.641 138.229 23.641C136.849 23.641 135.769 23.521 134.989 23.281C134.209 23.061 133.679 22.891 133.399 22.771L133.909 20.3709C134.229 20.4909 134.739 20.6709 135.439 20.9109C136.139 21.1509 137.069 21.2709 138.229 21.2709ZM161.022 2.86114e-05C161.723 2.86114e-05 162.323 0.0500307 162.823 0.150035C163.323 0.230038 163.683 0.310042 163.903 0.390046L163.513 2.79015C163.293 2.71014 162.993 2.63014 162.613 2.55014C162.233 2.45013 161.773 2.40013 161.232 2.40013C159.932 2.40013 159.022 2.76015 158.502 3.48018C157.982 4.18021 157.722 5.13025 157.722 6.3303V7.68035H163.723V10.0205H157.722V23.281H154.932V6.2703C154.932 4.27021 155.422 2.73014 156.402 1.6501C157.382 0.550052 158.922 2.86114e-05 161.022 2.86114e-05ZM169.423 23.281H166.633V7.68035H169.423V23.281ZM168.013 4.86024C167.513 4.86024 167.083 4.70023 166.723 4.38021C166.383 4.0402 166.213 3.59018 166.213 3.03016C166.213 2.47013 166.383 2.03012 166.723 1.7101C167.083 1.37009 167.513 1.20008 168.013 1.20008C168.513 1.20008 168.933 1.37009 169.273 1.7101C169.633 2.03012 169.813 2.47013 169.813 3.03016C169.813 3.59018 169.633 4.0402 169.273 4.38021C168.933 4.70023 168.513 4.86024 168.013 4.86024ZM174.21 8.13038C174.85 7.97037 175.7 7.80036 176.76 7.62035C177.821 7.44035 179.041 7.35034 180.421 7.35034C181.661 7.35034 182.691 7.53035 183.511 7.89036C184.331 8.23038 184.981 8.7204 185.461 9.36043C185.961 9.98045 186.311 10.7305 186.511 11.6105C186.711 12.4906 186.811 13.4606 186.811 14.5206V23.281H184.021V15.1207C184.021 14.1606 183.951 13.3406 183.811 12.6606C183.691 11.9805 183.481 11.4305 183.181 11.0105C182.881 10.5905 182.481 10.2905 181.981 10.1105C181.481 9.91045 180.861 9.81045 180.121 9.81045C179.821 9.81045 179.511 9.82045 179.191 9.84045C178.871 9.86045 178.561 9.89045 178.261 9.93045C177.981 9.95045 177.721 9.98045 177.481 10.0205C177.261 10.0605 177.101 10.0905 177.001 10.1105V23.281H174.21V8.13038ZM201.518 10.9805C201.178 10.7005 200.688 10.4305 200.048 10.1705C199.408 9.91045 198.708 9.78044 197.948 9.78044C197.148 9.78044 196.458 9.93045 195.878 10.2305C195.318 10.5105 194.858 10.9105 194.498 11.4305C194.138 11.9305 193.878 12.5306 193.718 13.2306C193.558 13.9306 193.478 14.6807 193.478 15.4807C193.478 17.3008 193.928 18.7108 194.828 19.7109C195.728 20.6909 196.928 21.1809 198.428 21.1809C199.188 21.1809 199.818 21.1509 200.318 21.0909C200.838 21.0109 201.238 20.9309 201.518 20.8509V10.9805ZM201.518 0.480048L204.308 2.86114e-05V22.831C203.668 23.011 202.848 23.191 201.848 23.371C200.848 23.551 199.698 23.641 198.398 23.641C197.198 23.641 196.118 23.451 195.158 23.071C194.198 22.691 193.378 22.151 192.698 21.4509C192.018 20.7509 191.488 19.9009 191.108 18.9008C190.748 17.8808 190.568 16.7407 190.568 15.4807C190.568 14.2806 190.718 13.1806 191.018 12.1805C191.338 11.1805 191.798 10.3205 192.398 9.60044C192.998 8.88041 193.728 8.32038 194.588 7.92037C195.468 7.52035 196.468 7.32034 197.588 7.32034C198.488 7.32034 199.278 7.44035 199.958 7.68035C200.658 7.92037 201.178 8.15038 201.518 8.37039V0.480048ZM211.895 23.281H209.104V7.68035H211.895V23.281ZM210.485 4.86024C209.984 4.86024 209.554 4.70023 209.194 4.38021C208.854 4.0402 208.684 3.59018 208.684 3.03016C208.684 2.47013 208.854 2.03012 209.194 1.7101C209.554 1.37009 209.984 1.20008 210.485 1.20008C210.985 1.20008 211.405 1.37009 211.745 1.7101C212.105 2.03012 212.285 2.47013 212.285 3.03016C212.285 3.59018 212.105 4.0402 211.745 4.38021C211.405 4.70023 210.985 4.86024 210.485 4.86024ZM216.693 8.13038C217.333 7.97037 218.183 7.80036 219.243 7.62035C220.303 7.44035 221.523 7.35034 222.903 7.35034C224.143 7.35034 225.173 7.53035 225.993 7.89036C226.813 8.23038 227.463 8.7204 227.943 9.36043C228.443 9.98045 228.793 10.7305 228.993 11.6105C229.193 12.4906 229.293 13.4606 229.293 14.5206V23.281H226.503V15.1207C226.503 14.1606 226.433 13.3406 226.293 12.6606C226.173 11.9805 225.963 11.4305 225.663 11.0105C225.363 10.5905 224.963 10.2905 224.463 10.1105C223.963 9.91045 223.343 9.81045 222.603 9.81045C222.303 9.81045 221.993 9.82045 221.673 9.84045C221.353 9.86045 221.043 9.89045 220.743 9.93045C220.463 9.95045 220.203 9.98045 219.963 10.0205C219.743 10.0605 219.583 10.0905 219.483 10.1105V23.281H216.693V8.13038ZM243.7 21.721C243.46 21.881 242.99 22.091 242.29 22.351C241.61 22.591 240.81 22.711 239.89 22.711C238.95 22.711 238.06 22.561 237.22 22.261C236.4 21.961 235.68 21.5009 235.06 20.8809C234.44 20.2409 233.95 19.4509 233.59 18.5108C233.23 17.5708 233.05 16.4507 233.05 15.1507C233.05 14.0106 233.22 12.9706 233.56 12.0305C233.9 11.0705 234.39 10.2505 235.03 9.57044C235.69 8.87041 236.49 8.33038 237.43 7.95037C238.37 7.55035 239.43 7.35034 240.61 7.35034C241.91 7.35034 243.04 7.45035 244 7.65035C244.98 7.83036 245.8 8.00037 246.46 8.16038V22.081C246.46 24.4811 245.84 26.2211 244.6 27.3012C243.36 28.3812 241.48 28.9213 238.96 28.9213C237.98 28.9213 237.05 28.8413 236.17 28.6812C235.31 28.5212 234.56 28.3312 233.92 28.1112L234.43 25.6811C234.99 25.9011 235.67 26.0911 236.47 26.2511C237.29 26.4312 238.14 26.5212 239.02 26.5212C240.68 26.5212 241.87 26.1911 242.59 25.5311C243.33 24.8711 243.7 23.821 243.7 22.381V21.721ZM243.67 10.1405C243.39 10.0605 243.01 9.99045 242.53 9.93045C242.07 9.85045 241.44 9.81045 240.64 9.81045C239.14 9.81045 237.98 10.3005 237.16 11.2805C236.36 12.2606 235.96 13.5606 235.96 15.1807C235.96 16.0807 236.07 16.8507 236.29 17.4908C236.53 18.1308 236.84 18.6608 237.22 19.0808C237.62 19.5009 238.07 19.8109 238.57 20.0109C239.09 20.2109 239.62 20.3109 240.16 20.3109C240.9 20.3109 241.58 20.2109 242.2 20.0109C242.82 19.7909 243.31 19.5409 243.67 19.2608V10.1405ZM260.818 7.68035H266.728V10.0205H260.818V17.2208C260.818 18.0008 260.878 18.6508 260.998 19.1708C261.118 19.6709 261.298 20.0709 261.538 20.3709C261.778 20.6509 262.078 20.8509 262.438 20.9709C262.798 21.0909 263.218 21.1509 263.698 21.1509C264.538 21.1509 265.208 21.0609 265.708 20.8809C266.228 20.6809 266.588 20.5409 266.788 20.4609L267.328 22.771C267.048 22.911 266.558 23.081 265.858 23.281C265.158 23.501 264.358 23.611 263.458 23.611C262.398 23.611 261.518 23.481 260.818 23.221C260.138 22.941 259.588 22.531 259.168 21.991C258.748 21.4509 258.448 20.7909 258.268 20.0109C258.108 19.2108 258.028 18.2908 258.028 17.2508V3.33017L260.818 2.85015V7.68035ZM270.279 23.281V0.480048L273.069 2.86114e-05V7.98037C273.589 7.78036 274.139 7.63035 274.719 7.53035C275.319 7.41034 275.909 7.35034 276.489 7.35034C277.729 7.35034 278.759 7.53035 279.579 7.89036C280.399 8.23038 281.049 8.7204 281.529 9.36043C282.029 9.98045 282.379 10.7305 282.579 11.6105C282.779 12.4906 282.879 13.4606 282.879 14.5206V23.281H280.089V15.1207C280.089 14.1606 280.019 13.3406 279.879 12.6606C279.759 11.9805 279.549 11.4305 279.249 11.0105C278.949 10.5905 278.549 10.2905 278.049 10.1105C277.549 9.91045 276.929 9.81045 276.189 9.81045C275.889 9.81045 275.579 9.83045 275.259 9.87045C274.939 9.91045 274.629 9.96045 274.329 10.0205C274.049 10.0605 273.789 10.1105 273.549 10.1705C273.329 10.2305 273.169 10.2805 273.069 10.3205V23.281H270.279ZM286.548 15.5107C286.548 14.1306 286.748 12.9306 287.148 11.9105C287.548 10.8705 288.078 10.0105 288.738 9.33043C289.398 8.6504 290.158 8.14037 291.018 7.80036C291.879 7.46035 292.759 7.29034 293.659 7.29034C295.759 7.29034 297.369 7.95037 298.489 9.27042C299.609 10.5705 300.169 12.5606 300.169 15.2407C300.169 15.3607 300.169 15.5207 300.169 15.7207C300.169 15.9007 300.159 16.0707 300.139 16.2307H289.458C289.578 17.8508 290.048 19.0808 290.868 19.9209C291.689 20.7609 292.969 21.1809 294.709 21.1809C295.689 21.1809 296.509 21.1009 297.169 20.9409C297.849 20.7609 298.359 20.5909 298.699 20.4309L299.089 22.771C298.749 22.951 298.149 23.141 297.289 23.341C296.449 23.541 295.489 23.641 294.409 23.641C293.049 23.641 291.869 23.441 290.868 23.041C289.888 22.621 289.078 22.051 288.438 21.3309C287.798 20.6109 287.318 19.7609 286.998 18.7808C286.698 17.7808 286.548 16.6907 286.548 15.5107ZM297.259 13.9806C297.279 12.7206 296.959 11.6905 296.299 10.8905C295.659 10.0705 294.769 9.66044 293.629 9.66044C292.989 9.66044 292.419 9.79044 291.919 10.0505C291.438 10.2905 291.028 10.6105 290.688 11.0105C290.348 11.4105 290.078 11.8705 289.878 12.3906C289.698 12.9106 289.578 13.4406 289.518 13.9806H297.259ZM321.951 15.5107C321.951 13.6906 321.501 12.2906 320.601 11.3105C319.701 10.3305 318.501 9.84045 317.001 9.84045C316.161 9.84045 315.501 9.87045 315.021 9.93045C314.561 9.99045 314.191 10.0605 313.911 10.1405V19.9809C314.251 20.2609 314.741 20.5309 315.381 20.7909C316.021 21.0509 316.721 21.1809 317.481 21.1809C318.281 21.1809 318.961 21.0409 319.521 20.7609C320.101 20.4609 320.571 20.0609 320.931 19.5609C321.291 19.0408 321.551 18.4408 321.711 17.7608C321.871 17.0608 321.951 16.3107 321.951 15.5107ZM324.861 15.5107C324.861 16.6907 324.701 17.7808 324.381 18.7808C324.081 19.7809 323.631 20.6409 323.031 21.3609C322.431 22.081 321.691 22.641 320.811 23.041C319.951 23.441 318.961 23.641 317.841 23.641C316.941 23.641 316.141 23.521 315.441 23.281C314.761 23.041 314.251 22.811 313.911 22.591V28.8313H311.121V8.16038C311.781 8.00037 312.601 7.83036 313.581 7.65035C314.581 7.45035 315.731 7.35034 317.031 7.35034C318.231 7.35034 319.311 7.54035 320.271 7.92037C321.231 8.30038 322.051 8.8404 322.731 9.54043C323.411 10.2405 323.931 11.1005 324.291 12.1205C324.671 13.1206 324.861 14.2506 324.861 15.5107ZM327.917 15.5107C327.917 14.1306 328.117 12.9306 328.517 11.9105C328.917 10.8705 329.447 10.0105 330.107 9.33043C330.767 8.6504 331.527 8.14037 332.387 7.80036C333.247 7.46035 334.128 7.29034 335.028 7.29034C337.128 7.29034 338.738 7.95037 339.858 9.27042C340.978 10.5705 341.538 12.5606 341.538 15.2407C341.538 15.3607 341.538 15.5207 341.538 15.7207C341.538 15.9007 341.528 16.0707 341.508 16.2307H330.827C330.947 17.8508 331.417 19.0808 332.237 19.9209C333.057 20.7609 334.338 21.1809 336.078 21.1809C337.058 21.1809 337.878 21.1009 338.538 20.9409C339.218 20.7609 339.728 20.5909 340.068 20.4309L340.458 22.771C340.118 22.951 339.518 23.141 338.658 23.341C337.818 23.541 336.858 23.641 335.778 23.641C334.418 23.641 333.237 23.441 332.237 23.041C331.257 22.621 330.447 22.051 329.807 21.3309C329.167 20.6109 328.687 19.7609 328.367 18.7808C328.067 17.7808 327.917 16.6907 327.917 15.5107ZM338.628 13.9806C338.648 12.7206 338.328 11.6905 337.668 10.8905C337.028 10.0705 336.138 9.66044 334.998 9.66044C334.358 9.66044 333.787 9.79044 333.287 10.0505C332.807 10.2905 332.397 10.6105 332.057 11.0105C331.717 11.4105 331.447 11.8705 331.247 12.3906C331.067 12.9106 330.947 13.4406 330.887 13.9806H338.628ZM351.306 7.35034C351.546 7.35034 351.816 7.37034 352.116 7.41034C352.436 7.43034 352.746 7.47035 353.046 7.53035C353.346 7.57035 353.616 7.62035 353.856 7.68035C354.116 7.72036 354.306 7.76036 354.426 7.80036L353.946 10.2305C353.726 10.1505 353.356 10.0605 352.836 9.96045C352.336 9.84045 351.686 9.78044 350.886 9.78044C350.366 9.78044 349.846 9.84045 349.326 9.96045C348.826 10.0605 348.496 10.1305 348.336 10.1705V23.281H345.546V8.34038C346.206 8.10037 347.026 7.88036 348.006 7.68035C348.986 7.46035 350.086 7.35034 351.306 7.35034ZM363.209 2.86114e-05C364.029 2.86114e-05 364.729 0.060031 365.309 0.180036C365.909 0.30004 366.329 0.410045 366.569 0.510049L366.059 2.91015C365.819 2.79015 365.479 2.68014 365.039 2.58014C364.599 2.46013 364.059 2.40013 363.419 2.40013C362.119 2.40013 361.209 2.76015 360.689 3.48018C360.169 4.18021 359.909 5.13025 359.909 6.3303V7.68035H365.909V10.0205H359.909V23.281H357.119V6.2703C357.119 4.27021 357.609 2.73014 358.589 1.6501C359.569 0.550052 361.109 2.86114e-05 363.209 2.86114e-05ZM367.821 15.5107C367.821 14.1306 368.021 12.9306 368.421 11.9105C368.821 10.8705 369.351 10.0105 370.011 9.33043C370.671 8.6504 371.431 8.14037 372.291 7.80036C373.152 7.46035 374.032 7.29034 374.932 7.29034C377.032 7.29034 378.642 7.95037 379.762 9.27042C380.882 10.5705 381.442 12.5606 381.442 15.2407C381.442 15.3607 381.442 15.5207 381.442 15.7207C381.442 15.9007 381.432 16.0707 381.412 16.2307H370.731C370.851 17.8508 371.321 19.0808 372.141 19.9209C372.961 20.7609 374.242 21.1809 375.982 21.1809C376.962 21.1809 377.782 21.1009 378.442 20.9409C379.122 20.7609 379.632 20.5909 379.972 20.4309L380.362 22.771C380.022 22.951 379.422 23.141 378.562 23.341C377.722 23.541 376.762 23.641 375.682 23.641C374.322 23.641 373.142 23.441 372.141 23.041C371.161 22.621 370.351 22.051 369.711 21.3309C369.071 20.6109 368.591 19.7609 368.271 18.7808C367.971 17.7808 367.821 16.6907 367.821 15.5107ZM378.532 13.9806C378.552 12.7206 378.232 11.6905 377.572 10.8905C376.932 10.0705 376.042 9.66044 374.902 9.66044C374.262 9.66044 373.692 9.79044 373.192 10.0505C372.711 10.2905 372.301 10.6105 371.961 11.0105C371.621 11.4105 371.351 11.8705 371.151 12.3906C370.971 12.9106 370.851 13.4406 370.791 13.9806H378.532ZM392.23 23.641C390.97 23.641 389.86 23.441 388.9 23.041C387.96 22.641 387.16 22.081 386.5 21.3609C385.86 20.6409 385.38 19.7909 385.06 18.8108C384.74 17.8108 384.58 16.7107 384.58 15.5107C384.58 14.3106 384.75 13.2106 385.09 12.2105C385.45 11.2105 385.95 10.3505 386.59 9.63044C387.23 8.89041 388.01 8.32038 388.93 7.92037C389.87 7.50035 390.91 7.29034 392.05 7.29034C392.75 7.29034 393.45 7.35034 394.15 7.47035C394.85 7.59035 395.52 7.78036 396.16 8.04037L395.53 10.4105C395.11 10.2105 394.62 10.0505 394.06 9.93045C393.52 9.81045 392.94 9.75044 392.32 9.75044C390.76 9.75044 389.56 10.2405 388.72 11.2205C387.9 12.2005 387.49 13.6306 387.49 15.5107C387.49 16.3507 387.58 17.1208 387.76 17.8208C387.96 18.5208 388.26 19.1208 388.66 19.6209C389.08 20.1209 389.61 20.5109 390.25 20.7909C390.89 21.0509 391.67 21.1809 392.59 21.1809C393.33 21.1809 394 21.1109 394.6 20.9709C395.2 20.8309 395.67 20.6809 396.01 20.5209L396.4 22.861C396.24 22.961 396.01 23.061 395.71 23.161C395.41 23.241 395.07 23.311 394.69 23.371C394.31 23.451 393.9 23.511 393.46 23.551C393.04 23.611 392.63 23.641 392.23 23.641ZM402.006 7.68035H407.916V10.0205H402.006V17.2208C402.006 18.0008 402.066 18.6508 402.186 19.1708C402.306 19.6709 402.486 20.0709 402.726 20.3709C402.966 20.6509 403.266 20.8509 403.626 20.9709C403.986 21.0909 404.406 21.1509 404.886 21.1509C405.726 21.1509 406.396 21.0609 406.896 20.8809C407.416 20.6809 407.776 20.5409 407.976 20.4609L408.516 22.771C408.236 22.911 407.746 23.081 407.046 23.281C406.346 23.501 405.546 23.611 404.646 23.611C403.586 23.611 402.706 23.481 402.006 23.221C401.326 22.941 400.776 22.531 400.356 21.991C399.936 21.4509 399.636 20.7909 399.456 20.0109C399.296 19.2108 399.216 18.2908 399.216 17.2508V3.33017L402.006 2.85015V7.68035ZM429.241 15.5107C429.241 13.6906 428.791 12.2906 427.891 11.3105C426.991 10.3305 425.791 9.84045 424.29 9.84045C423.45 9.84045 422.79 9.87045 422.31 9.93045C421.85 9.99045 421.48 10.0605 421.2 10.1405V19.9809C421.54 20.2609 422.03 20.5309 422.67 20.7909C423.31 21.0509 424.01 21.1809 424.77 21.1809C425.571 21.1809 426.251 21.0409 426.811 20.7609C427.391 20.4609 427.861 20.0609 428.221 19.5609C428.581 19.0408 428.841 18.4408 429.001 17.7608C429.161 17.0608 429.241 16.3107 429.241 15.5107ZM432.151 15.5107C432.151 16.6907 431.991 17.7808 431.671 18.7808C431.371 19.7809 430.921 20.6409 430.321 21.3609C429.721 22.081 428.981 22.641 428.101 23.041C427.241 23.441 426.251 23.641 425.131 23.641C424.23 23.641 423.43 23.521 422.73 23.281C422.05 23.041 421.54 22.811 421.2 22.591V28.8313H418.41V8.16038C419.07 8.00037 419.89 7.83036 420.87 7.65035C421.87 7.45035 423.02 7.35034 424.32 7.35034C425.521 7.35034 426.601 7.54035 427.561 7.92037C428.521 8.30038 429.341 8.8404 430.021 9.54043C430.701 10.2405 431.221 11.1005 431.581 12.1205C431.961 13.1206 432.151 14.2506 432.151 15.5107ZM441.837 7.35034C442.077 7.35034 442.347 7.37034 442.647 7.41034C442.967 7.43034 443.277 7.47035 443.577 7.53035C443.877 7.57035 444.147 7.62035 444.387 7.68035C444.647 7.72036 444.837 7.76036 444.957 7.80036L444.477 10.2305C444.257 10.1505 443.887 10.0605 443.367 9.96045C442.867 9.84045 442.217 9.78044 441.417 9.78044C440.897 9.78044 440.377 9.84045 439.857 9.96045C439.357 10.0605 439.027 10.1305 438.867 10.1705V23.281H436.077V8.34038C436.737 8.10037 437.557 7.88036 438.537 7.68035C439.517 7.46035 440.617 7.35034 441.837 7.35034ZM461.42 15.4807C461.42 16.7207 461.24 17.8408 460.88 18.8408C460.52 19.8409 460.01 20.7009 459.35 21.4209C458.71 22.141 457.94 22.701 457.04 23.101C456.14 23.481 455.16 23.671 454.1 23.671C453.04 23.671 452.06 23.481 451.16 23.101C450.26 22.701 449.48 22.141 448.82 21.4209C448.18 20.7009 447.68 19.8409 447.32 18.8408C446.96 17.8408 446.78 16.7207 446.78 15.4807C446.78 14.2606 446.96 13.1506 447.32 12.1505C447.68 11.1305 448.18 10.2605 448.82 9.54043C449.48 8.8204 450.26 8.27038 451.16 7.89036C452.06 7.49035 453.04 7.29034 454.1 7.29034C455.16 7.29034 456.14 7.49035 457.04 7.89036C457.94 8.27038 458.71 8.8204 459.35 9.54043C460.01 10.2605 460.52 11.1305 460.88 12.1505C461.24 13.1506 461.42 14.2606 461.42 15.4807ZM458.51 15.4807C458.51 13.7206 458.11 12.3306 457.31 11.3105C456.53 10.2705 455.46 9.75044 454.1 9.75044C452.74 9.75044 451.66 10.2705 450.86 11.3105C450.08 12.3306 449.69 13.7206 449.69 15.4807C449.69 17.2408 450.08 18.6408 450.86 19.6809C451.66 20.7009 452.74 21.2109 454.1 21.2109C455.46 21.2109 456.53 20.7009 457.31 19.6809C458.11 18.6408 458.51 17.2408 458.51 15.4807ZM475.426 10.9805C475.086 10.7005 474.596 10.4305 473.956 10.1705C473.316 9.91045 472.616 9.78044 471.856 9.78044C471.056 9.78044 470.366 9.93045 469.786 10.2305C469.226 10.5105 468.766 10.9105 468.406 11.4305C468.046 11.9305 467.786 12.5306 467.626 13.2306C467.466 13.9306 467.386 14.6807 467.386 15.4807C467.386 17.3008 467.836 18.7108 468.736 19.7109C469.636 20.6909 470.836 21.1809 472.336 21.1809C473.096 21.1809 473.726 21.1509 474.226 21.0909C474.746 21.0109 475.146 20.9309 475.426 20.8509V10.9805ZM475.426 0.480048L478.216 2.86114e-05V22.831C477.576 23.011 476.756 23.191 475.756 23.371C474.756 23.551 473.606 23.641 472.306 23.641C471.106 23.641 470.026 23.451 469.066 23.071C468.106 22.691 467.286 22.151 466.606 21.4509C465.926 20.7509 465.396 19.9009 465.016 18.9008C464.656 17.8808 464.476 16.7407 464.476 15.4807C464.476 14.2806 464.626 13.1806 464.926 12.1805C465.246 11.1805 465.706 10.3205 466.306 9.60044C466.906 8.88041 467.636 8.32038 468.496 7.92037C469.376 7.52035 470.376 7.32034 471.496 7.32034C472.396 7.32034 473.186 7.44035 473.866 7.68035C474.566 7.92037 475.086 8.15038 475.426 8.37039V0.480048ZM495.433 22.831C494.793 22.991 493.943 23.161 492.883 23.341C491.843 23.521 490.633 23.611 489.253 23.611C488.053 23.611 487.043 23.441 486.223 23.101C485.403 22.741 484.743 22.241 484.243 21.6009C483.743 20.9609 483.383 20.2109 483.163 19.3509C482.943 18.4708 482.833 17.5008 482.833 16.4407V7.68035H485.623V15.8407C485.623 17.7408 485.923 19.1008 486.523 19.9209C487.123 20.7409 488.133 21.1509 489.553 21.1509C489.853 21.1509 490.163 21.1409 490.483 21.1209C490.803 21.1009 491.103 21.0809 491.383 21.0609C491.663 21.0209 491.913 20.9909 492.133 20.9709C492.373 20.9309 492.543 20.8909 492.643 20.8509V7.68035H495.433V22.831ZM507.02 23.641C505.76 23.641 504.65 23.441 503.69 23.041C502.75 22.641 501.95 22.081 501.29 21.3609C500.65 20.6409 500.17 19.7909 499.85 18.8108C499.53 17.8108 499.37 16.7107 499.37 15.5107C499.37 14.3106 499.54 13.2106 499.88 12.2105C500.24 11.2105 500.74 10.3505 501.38 9.63044C502.02 8.89041 502.8 8.32038 503.72 7.92037C504.66 7.50035 505.7 7.29034 506.84 7.29034C507.54 7.29034 508.24 7.35034 508.94 7.47035C509.64 7.59035 510.31 7.78036 510.95 8.04037L510.32 10.4105C509.9 10.2105 509.41 10.0505 508.85 9.93045C508.31 9.81045 507.73 9.75044 507.11 9.75044C505.55 9.75044 504.35 10.2405 503.51 11.2205C502.69 12.2005 502.28 13.6306 502.28 15.5107C502.28 16.3507 502.37 17.1208 502.55 17.8208C502.75 18.5208 503.05 19.1208 503.45 19.6209C503.87 20.1209 504.4 20.5109 505.04 20.7909C505.68 21.0509 506.46 21.1809 507.38 21.1809C508.12 21.1809 508.79 21.1109 509.39 20.9709C509.99 20.8309 510.46 20.6809 510.8 20.5209L511.19 22.861C511.03 22.961 510.8 23.061 510.5 23.161C510.2 23.241 509.86 23.311 509.48 23.371C509.1 23.451 508.69 23.511 508.25 23.551C507.83 23.611 507.42 23.641 507.02 23.641ZM516.796 7.68035H522.706V10.0205H516.796V17.2208C516.796 18.0008 516.856 18.6508 516.976 19.1708C517.096 19.6709 517.276 20.0709 517.516 20.3709C517.756 20.6509 518.056 20.8509 518.416 20.9709C518.776 21.0909 519.196 21.1509 519.676 21.1509C520.516 21.1509 521.186 21.0609 521.686 20.8809C522.206 20.6809 522.566 20.5409 522.766 20.4609L523.306 22.771C523.026 22.911 522.536 23.081 521.836 23.281C521.136 23.501 520.336 23.611 519.436 23.611C518.376 23.611 517.496 23.481 516.796 23.221C516.116 22.941 515.566 22.531 515.146 21.991C514.726 21.4509 514.426 20.7909 514.246 20.0109C514.086 19.2108 514.006 18.2908 514.006 17.2508V3.33017L516.796 2.85015V7.68035ZM529.047 23.281H526.257V7.68035H529.047V23.281ZM527.637 4.86024C527.137 4.86024 526.707 4.70023 526.347 4.38021C526.007 4.0402 525.837 3.59018 525.837 3.03016C525.837 2.47013 526.007 2.03012 526.347 1.7101C526.707 1.37009 527.137 1.20008 527.637 1.20008C528.137 1.20008 528.557 1.37009 528.897 1.7101C529.257 2.03012 529.437 2.47013 529.437 3.03016C529.437 3.59018 529.257 4.0402 528.897 4.38021C528.557 4.70023 528.137 4.86024 527.637 4.86024ZM546.025 7.68035C545.245 10.6005 544.325 13.4006 543.265 16.0807C542.225 18.7608 541.215 21.1609 540.235 23.281H537.715C536.735 21.1609 535.715 18.7608 534.655 16.0807C533.615 13.4006 532.705 10.6005 531.925 7.68035H534.925C535.165 8.6604 535.445 9.71044 535.765 10.8305C536.105 11.9305 536.455 13.0306 536.815 14.1306C537.195 15.2107 537.575 16.2607 537.955 17.2808C538.335 18.3008 538.695 19.2108 539.035 20.0109C539.375 19.2108 539.735 18.3008 540.115 17.2808C540.495 16.2607 540.865 15.2107 541.225 14.1306C541.605 13.0306 541.955 11.9305 542.275 10.8305C542.615 9.71044 542.905 8.6604 543.145 7.68035H546.025ZM551.694 23.281H548.904V7.68035H551.694V23.281ZM550.284 4.86024C549.784 4.86024 549.354 4.70023 548.994 4.38021C548.654 4.0402 548.484 3.59018 548.484 3.03016C548.484 2.47013 548.654 2.03012 548.994 1.7101C549.354 1.37009 549.784 1.20008 550.284 1.20008C550.784 1.20008 551.204 1.37009 551.544 1.7101C551.904 2.03012 552.084 2.47013 552.084 3.03016C552.084 3.59018 551.904 4.0402 551.544 4.38021C551.204 4.70023 550.784 4.86024 550.284 4.86024ZM559.102 7.68035H565.013V10.0205H559.102V17.2208C559.102 18.0008 559.162 18.6508 559.282 19.1708C559.402 19.6709 559.582 20.0709 559.822 20.3709C560.062 20.6509 560.362 20.8509 560.722 20.9709C561.082 21.0909 561.502 21.1509 561.983 21.1509C562.823 21.1509 563.493 21.0609 563.993 20.8809C564.513 20.6809 564.873 20.5409 565.073 20.4609L565.613 22.771C565.333 22.911 564.843 23.081 564.143 23.281C563.443 23.501 562.643 23.611 561.742 23.611C560.682 23.611 559.802 23.481 559.102 23.221C558.422 22.941 557.872 22.531 557.452 21.991C557.032 21.4509 556.732 20.7909 556.552 20.0109C556.392 19.2108 556.312 18.2908 556.312 17.2508V3.33017L559.102 2.85015V7.68035ZM566.733 26.1911C566.953 26.2911 567.233 26.3812 567.573 26.4612C567.933 26.5612 568.283 26.6112 568.623 26.6112C569.723 26.6112 570.583 26.3612 571.203 25.8611C571.823 25.3811 572.383 24.5911 572.883 23.491C571.623 21.0909 570.443 18.5508 569.343 15.8707C568.263 13.1706 567.363 10.4405 566.643 7.68035H569.643C569.863 8.58039 570.123 9.55043 570.423 10.5905C570.743 11.6305 571.093 12.7006 571.473 13.8006C571.853 14.9007 572.263 16.0007 572.703 17.1008C573.143 18.2008 573.603 19.2608 574.083 20.2809C574.843 18.1808 575.503 16.1007 576.063 14.0406C576.623 11.9805 577.153 9.86045 577.653 7.68035H580.534C579.814 10.6205 579.014 13.4506 578.134 16.1707C577.253 18.8708 576.303 21.4009 575.283 23.761C574.883 24.6611 574.463 25.4311 574.023 26.0711C573.603 26.7312 573.133 27.2712 572.613 27.6912C572.093 28.1112 571.503 28.4212 570.843 28.6212C570.203 28.8213 569.473 28.9213 568.653 28.9213C568.433 28.9213 568.203 28.9013 567.963 28.8613C567.723 28.8413 567.483 28.8013 567.243 28.7413C567.023 28.7013 566.813 28.6512 566.613 28.5912C566.433 28.5312 566.303 28.4812 566.223 28.4412L566.733 26.1911ZM594.05 21.2709C595.19 21.2709 596.03 21.1209 596.57 20.8209C597.13 20.5209 597.41 20.0409 597.41 19.3809C597.41 18.7008 597.14 18.1608 596.6 17.7608C596.06 17.3608 595.17 16.9107 593.93 16.4107C593.33 16.1707 592.75 15.9307 592.19 15.6907C591.65 15.4307 591.18 15.1307 590.78 14.7907C590.379 14.4506 590.059 14.0406 589.819 13.5606C589.579 13.0806 589.459 12.4906 589.459 11.7905C589.459 10.4105 589.969 9.32043 590.99 8.52039C592.01 7.70036 593.4 7.29034 595.16 7.29034C595.6 7.29034 596.04 7.32034 596.48 7.38034C596.92 7.42034 597.33 7.48035 597.71 7.56035C598.09 7.62035 598.42 7.69036 598.7 7.77036C599 7.85036 599.23 7.92037 599.39 7.98037L598.88 10.3805C598.58 10.2205 598.11 10.0605 597.47 9.90045C596.83 9.72044 596.06 9.63044 595.16 9.63044C594.38 9.63044 593.7 9.79045 593.12 10.1105C592.54 10.4105 592.25 10.8905 592.25 11.5505C592.25 11.8905 592.31 12.1905 592.43 12.4506C592.57 12.7106 592.77 12.9506 593.03 13.1706C593.31 13.3706 593.65 13.5606 594.05 13.7406C594.45 13.9206 594.93 14.1106 595.49 14.3106C596.23 14.5906 596.89 14.8707 597.47 15.1507C598.05 15.4107 598.54 15.7207 598.94 16.0807C599.36 16.4407 599.68 16.8807 599.9 17.4008C600.12 17.9008 600.23 18.5208 600.23 19.2608C600.23 20.7009 599.69 21.791 598.61 22.531C597.55 23.271 596.03 23.641 594.05 23.641C592.67 23.641 591.59 23.521 590.81 23.281C590.029 23.061 589.499 22.891 589.219 22.771L589.729 20.3709C590.049 20.4909 590.56 20.6709 591.26 20.9109C591.96 21.1509 592.89 21.2709 594.05 21.2709ZM617.579 15.4807C617.579 16.7207 617.399 17.8408 617.039 18.8408C616.679 19.8409 616.169 20.7009 615.509 21.4209C614.869 22.141 614.099 22.701 613.199 23.101C612.299 23.481 611.319 23.671 610.259 23.671C609.199 23.671 608.219 23.481 607.319 23.101C606.419 22.701 605.639 22.141 604.979 21.4209C604.339 20.7009 603.839 19.8409 603.479 18.8408C603.119 17.8408 602.939 16.7207 602.939 15.4807C602.939 14.2606 603.119 13.1506 603.479 12.1505C603.839 11.1305 604.339 10.2605 604.979 9.54043C605.639 8.8204 606.419 8.27038 607.319 7.89036C608.219 7.49035 609.199 7.29034 610.259 7.29034C611.319 7.29034 612.299 7.49035 613.199 7.89036C614.099 8.27038 614.869 8.8204 615.509 9.54043C616.169 10.2605 616.679 11.1305 617.039 12.1505C617.399 13.1506 617.579 14.2606 617.579 15.4807ZM614.669 15.4807C614.669 13.7206 614.269 12.3306 613.469 11.3105C612.689 10.2705 611.619 9.75044 610.259 9.75044C608.899 9.75044 607.819 10.2705 607.019 11.3105C606.239 12.3306 605.849 13.7206 605.849 15.4807C605.849 17.2408 606.239 18.6408 607.019 19.6809C607.819 20.7009 608.899 21.2109 610.259 21.2109C611.619 21.2109 612.689 20.7009 613.469 19.6809C614.269 18.6408 614.669 17.2408 614.669 15.4807ZM627.595 2.86114e-05C628.415 2.86114e-05 629.115 0.060031 629.695 0.180036C630.295 0.30004 630.715 0.410045 630.955 0.510049L630.445 2.91015C630.205 2.79015 629.865 2.68014 629.425 2.58014C628.985 2.46013 628.445 2.40013 627.805 2.40013C626.505 2.40013 625.595 2.76015 625.075 3.48018C624.555 4.18021 624.295 5.13025 624.295 6.3303V7.68035H630.295V10.0205H624.295V23.281H621.505V6.2703C621.505 4.27021 621.995 2.73014 622.975 1.6501C623.955 0.550052 625.495 2.86114e-05 627.595 2.86114e-05ZM635.688 7.68035H641.598V10.0205H635.688V17.2208C635.688 18.0008 635.748 18.6508 635.868 19.1708C635.988 19.6709 636.168 20.0709 636.408 20.3709C636.648 20.6509 636.948 20.8509 637.308 20.9709C637.668 21.0909 638.088 21.1509 638.568 21.1509C639.408 21.1509 640.078 21.0609 640.578 20.8809C641.098 20.6809 641.458 20.5409 641.658 20.4609L642.198 22.771C641.918 22.911 641.428 23.081 640.728 23.281C640.028 23.501 639.228 23.611 638.328 23.611C637.268 23.611 636.388 23.481 635.688 23.221C635.008 22.941 634.458 22.531 634.038 21.991C633.618 21.4509 633.318 20.7909 633.138 20.0109C632.978 19.2108 632.898 18.2908 632.898 17.2508V3.33017L635.688 2.85015V7.68035ZM657.899 23.281C657.339 21.841 656.739 20.2009 656.099 18.3608C655.479 16.5007 654.909 14.5706 654.389 12.5706C653.869 14.5706 653.299 16.5007 652.679 18.3608C652.059 20.2009 651.469 21.841 650.909 23.281H648.479C647.558 21.2209 646.658 18.8708 645.778 16.2307C644.898 13.5906 644.068 10.7405 643.288 7.68035H646.288C646.488 8.6204 646.728 9.64044 647.008 10.7405C647.288 11.8405 647.578 12.9406 647.879 14.0406C648.199 15.1407 648.529 16.2007 648.869 17.2208C649.209 18.2408 649.529 19.1308 649.829 19.8909C650.169 18.9508 650.499 17.9608 650.819 16.9207C651.159 15.8607 651.479 14.8007 651.779 13.7406C652.079 12.6606 652.359 11.6105 652.619 10.5905C652.899 9.55043 653.139 8.58039 653.339 7.68035H655.649C655.829 8.58039 656.049 9.55043 656.309 10.5905C656.569 11.6105 656.849 12.6606 657.149 13.7406C657.449 14.8007 657.759 15.8607 658.079 16.9207C658.419 17.9608 658.759 18.9508 659.099 19.8909C659.399 19.1308 659.709 18.2408 660.029 17.2208C660.369 16.2007 660.699 15.1407 661.019 14.0406C661.339 12.9406 661.639 11.8405 661.919 10.7405C662.199 9.64044 662.439 8.6204 662.639 7.68035H665.519C664.739 10.7405 663.909 13.5906 663.029 16.2307C662.149 18.8708 661.249 21.2209 660.329 23.281H657.899ZM673.75 21.2709C674.41 21.2709 674.99 21.2609 675.49 21.2409C676.01 21.2009 676.44 21.1409 676.78 21.0609V16.4107C676.58 16.3107 676.25 16.2307 675.79 16.1707C675.35 16.0907 674.81 16.0507 674.17 16.0507C673.75 16.0507 673.3 16.0807 672.82 16.1407C672.36 16.2007 671.93 16.3307 671.53 16.5307C671.15 16.7107 670.83 16.9708 670.57 17.3108C670.31 17.6308 670.18 18.0608 670.18 18.6008C670.18 19.6009 670.5 20.3009 671.14 20.7009C671.78 21.0809 672.65 21.2709 673.75 21.2709ZM673.51 7.29034C674.63 7.29034 675.57 7.44034 676.33 7.74036C677.11 8.02037 677.73 8.43039 678.19 8.97041C678.67 9.49043 679.01 10.1205 679.21 10.8605C679.41 11.5805 679.51 12.3806 679.51 13.2606V23.011C679.27 23.051 678.93 23.111 678.49 23.191C678.07 23.251 677.59 23.311 677.05 23.371C676.51 23.431 675.92 23.481 675.28 23.521C674.66 23.581 674.04 23.611 673.42 23.611C672.54 23.611 671.73 23.521 670.99 23.341C670.25 23.161 669.61 22.881 669.07 22.501C668.53 22.101 668.11 21.5809 667.81 20.9409C667.51 20.3009 667.36 19.5309 667.36 18.6308C667.36 17.7708 667.53 17.0308 667.87 16.4107C668.23 15.7907 668.71 15.2907 669.31 14.9107C669.91 14.5306 670.61 14.2506 671.41 14.0706C672.21 13.8906 673.05 13.8006 673.93 13.8006C674.21 13.8006 674.5 13.8206 674.8 13.8606C675.1 13.8806 675.38 13.9206 675.64 13.9806C675.92 14.0206 676.16 14.0606 676.36 14.1006C676.56 14.1406 676.7 14.1706 676.78 14.1906V13.4106C676.78 12.9506 676.73 12.5006 676.63 12.0605C676.53 11.6005 676.35 11.2005 676.09 10.8605C675.83 10.5005 675.47 10.2205 675.01 10.0205C674.57 9.80045 673.99 9.69044 673.27 9.69044C672.35 9.69044 671.54 9.76044 670.84 9.90045C670.16 10.0205 669.65 10.1505 669.31 10.2905L668.98 7.98037C669.34 7.82036 669.94 7.67036 670.78 7.53035C671.62 7.37034 672.53 7.29034 673.51 7.29034ZM689.904 7.35034C690.144 7.35034 690.414 7.37034 690.714 7.41034C691.034 7.43034 691.344 7.47035 691.645 7.53035C691.945 7.57035 692.215 7.62035 692.455 7.68035C692.715 7.72036 692.905 7.76036 693.025 7.80036L692.545 10.2305C692.325 10.1505 691.955 10.0605 691.434 9.96045C690.934 9.84045 690.284 9.78044 689.484 9.78044C688.964 9.78044 688.444 9.84045 687.924 9.96045C687.424 10.0605 687.094 10.1305 686.934 10.1705V23.281H684.144V8.34038C684.804 8.10037 685.624 7.88036 686.604 7.68035C687.584 7.46035 688.684 7.35034 689.904 7.35034ZM694.847 15.5107C694.847 14.1306 695.047 12.9306 695.447 11.9105C695.847 10.8705 696.377 10.0105 697.037 9.33043C697.697 8.6504 698.457 8.14037 699.317 7.80036C700.177 7.46035 701.057 7.29034 701.957 7.29034C704.057 7.29034 705.667 7.95037 706.787 9.27042C707.907 10.5705 708.467 12.5606 708.467 15.2407C708.467 15.3607 708.467 15.5207 708.467 15.7207C708.467 15.9007 708.457 16.0707 708.437 16.2307H697.757C697.877 17.8508 698.347 19.0808 699.167 19.9209C699.987 20.7609 701.267 21.1809 703.007 21.1809C703.987 21.1809 704.807 21.1009 705.467 20.9409C706.147 20.7609 706.657 20.5909 706.997 20.4309L707.387 22.771C707.047 22.951 706.447 23.141 705.587 23.341C704.747 23.541 703.787 23.641 702.707 23.641C701.347 23.641 700.167 23.441 699.167 23.041C698.187 22.621 697.377 22.051 696.737 21.3309C696.097 20.6109 695.617 19.7609 695.297 18.7808C694.997 17.7808 694.847 16.6907 694.847 15.5107ZM705.557 13.9806C705.577 12.7206 705.257 11.6905 704.597 10.8905C703.957 10.0705 703.067 9.66044 701.927 9.66044C701.287 9.66044 700.717 9.79044 700.217 10.0505C699.737 10.2905 699.327 10.6105 698.987 11.0105C698.647 11.4105 698.377 11.8705 698.177 12.3906C697.997 12.9106 697.877 13.4406 697.817 13.9806H705.557ZM732.17 23.281C731.61 21.841 731.01 20.2009 730.37 18.3608C729.75 16.5007 729.18 14.5706 728.66 12.5706C728.139 14.5706 727.569 16.5007 726.949 18.3608C726.329 20.2009 725.739 21.841 725.179 23.281H722.749C721.829 21.2209 720.929 18.8708 720.049 16.2307C719.169 13.5906 718.339 10.7405 717.559 7.68035H720.559C720.759 8.6204 720.999 9.64044 721.279 10.7405C721.559 11.8405 721.849 12.9406 722.149 14.0406C722.469 15.1407 722.799 16.2007 723.139 17.2208C723.479 18.2408 723.799 19.1308 724.099 19.8909C724.439 18.9508 724.769 17.9608 725.089 16.9207C725.429 15.8607 725.749 14.8007 726.049 13.7406C726.349 12.6606 726.629 11.6105 726.889 10.5905C727.169 9.55043 727.409 8.58039 727.609 7.68035H729.92C730.1 8.58039 730.32 9.55043 730.58 10.5905C730.84 11.6105 731.12 12.6606 731.42 13.7406C731.72 14.8007 732.03 15.8607 732.35 16.9207C732.69 17.9608 733.03 18.9508 733.37 19.8909C733.67 19.1308 733.98 18.2408 734.3 17.2208C734.64 16.2007 734.97 15.1407 735.29 14.0406C735.61 12.9406 735.91 11.8405 736.19 10.7405C736.47 9.64044 736.71 8.6204 736.91 7.68035H739.79C739.01 10.7405 738.18 13.5906 737.3 16.2307C736.42 18.8708 735.52 21.2209 734.6 23.281H732.17ZM745.531 23.281H742.74V7.68035H745.531V23.281ZM744.12 4.86024C743.62 4.86024 743.19 4.70023 742.83 4.38021C742.49 4.0402 742.32 3.59018 742.32 3.03016C742.32 2.47013 742.49 2.03012 742.83 1.7101C743.19 1.37009 743.62 1.20008 744.12 1.20008C744.621 1.20008 745.041 1.37009 745.381 1.7101C745.741 2.03012 745.921 2.47013 745.921 3.03016C745.921 3.59018 745.741 4.0402 745.381 4.38021C745.041 4.70023 744.621 4.86024 744.12 4.86024ZM752.939 7.68035H758.849V10.0205H752.939V17.2208C752.939 18.0008 752.999 18.6508 753.119 19.1708C753.239 19.6709 753.419 20.0709 753.659 20.3709C753.899 20.6509 754.199 20.8509 754.559 20.9709C754.919 21.0909 755.339 21.1509 755.819 21.1509C756.659 21.1509 757.329 21.0609 757.829 20.8809C758.349 20.6809 758.709 20.5409 758.909 20.4609L759.449 22.771C759.169 22.911 758.679 23.081 757.979 23.281C757.279 23.501 756.479 23.611 755.579 23.611C754.519 23.611 753.639 23.481 752.939 23.221C752.259 22.941 751.709 22.531 751.289 21.991C750.869 21.4509 750.569 20.7909 750.389 20.0109C750.229 19.2108 750.149 18.2908 750.149 17.2508V3.33017L752.939 2.85015V7.68035ZM762.399 23.281V0.480048L765.19 2.86114e-05V7.98037C765.71 7.78036 766.26 7.63035 766.84 7.53035C767.44 7.41034 768.03 7.35034 768.61 7.35034C769.85 7.35034 770.88 7.53035 771.7 7.89036C772.52 8.23038 773.17 8.7204 773.65 9.36043C774.15 9.98045 774.5 10.7305 774.7 11.6105C774.9 12.4906 775 13.4606 775 14.5206V23.281H772.21V15.1207C772.21 14.1606 772.14 13.3406 772 12.6606C771.88 11.9805 771.67 11.4305 771.37 11.0105C771.07 10.5905 770.67 10.2905 770.17 10.1105C769.67 9.91045 769.05 9.81045 768.31 9.81045C768.01 9.81045 767.7 9.83045 767.38 9.87045C767.06 9.91045 766.75 9.96045 766.45 10.0205C766.17 10.0605 765.91 10.1105 765.67 10.1705C765.45 10.2305 765.29 10.2805 765.19 10.3205V23.281H762.399ZM132.095 49.4821C132.095 50.7222 131.915 51.8422 131.555 52.8423C131.195 53.8423 130.685 54.7024 130.025 55.4224C129.385 56.1424 128.615 56.7024 127.715 57.1025C126.815 57.4825 125.835 57.6725 124.774 57.6725C123.714 57.6725 122.734 57.4825 121.834 57.1025C120.934 56.7024 120.154 56.1424 119.494 55.4224C118.854 54.7024 118.354 53.8423 117.994 52.8423C117.634 51.8422 117.454 50.7222 117.454 49.4821C117.454 48.2621 117.634 47.152 117.994 46.152C118.354 45.1319 118.854 44.2619 119.494 43.5419C120.154 42.8218 120.934 42.2718 121.834 41.8918C122.734 41.4918 123.714 41.2918 124.774 41.2918C125.835 41.2918 126.815 41.4918 127.715 41.8918C128.615 42.2718 129.385 42.8218 130.025 43.5419C130.685 44.2619 131.195 45.1319 131.555 46.152C131.915 47.152 132.095 48.2621 132.095 49.4821ZM129.185 49.4821C129.185 47.7221 128.785 46.332 127.985 45.312C127.205 44.2719 126.135 43.7519 124.774 43.7519C123.414 43.7519 122.334 44.2719 121.534 45.312C120.754 46.332 120.364 47.7221 120.364 49.4821C120.364 51.2422 120.754 52.6423 121.534 53.6823C122.334 54.7024 123.414 55.2124 124.774 55.2124C126.135 55.2124 127.205 54.7024 127.985 53.6823C128.785 52.6423 129.185 51.2422 129.185 49.4821ZM148.441 56.8324C147.801 56.9925 146.951 57.1625 145.891 57.3425C144.851 57.5225 143.641 57.6125 142.261 57.6125C141.061 57.6125 140.05 57.4425 139.23 57.1025C138.41 56.7424 137.75 56.2424 137.25 55.6024C136.75 54.9624 136.39 54.2123 136.17 53.3523C135.95 52.4723 135.84 51.5022 135.84 50.4422V41.6818H138.63V49.8421C138.63 51.7422 138.93 53.1023 139.53 53.9223C140.13 54.7424 141.141 55.1524 142.561 55.1524C142.861 55.1524 143.171 55.1424 143.491 55.1224C143.811 55.1024 144.111 55.0824 144.391 55.0624C144.671 55.0224 144.921 54.9924 145.141 54.9724C145.381 54.9324 145.551 54.8924 145.651 54.8524V41.6818H148.441V56.8324ZM159.008 41.3518C159.248 41.3518 159.518 41.3718 159.818 41.4118C160.138 41.4318 160.448 41.4718 160.748 41.5318C161.048 41.5718 161.318 41.6218 161.558 41.6818C161.818 41.7218 162.008 41.7618 162.128 41.8018L161.648 44.2319C161.428 44.1519 161.058 44.0619 160.538 43.9619C160.038 43.8419 159.388 43.7819 158.588 43.7819C158.068 43.7819 157.548 43.8419 157.028 43.9619C156.528 44.0619 156.198 44.1319 156.038 44.1719V57.2825H153.248V42.3418C153.908 42.1018 154.728 41.8818 155.708 41.6818C156.688 41.4618 157.788 41.3518 159.008 41.3518ZM249.704 57.2825H246.914V41.6818H249.704V57.2825ZM248.294 38.8617C247.794 38.8617 247.364 38.7017 247.004 38.3817C246.664 38.0416 246.494 37.5916 246.494 37.0316C246.494 36.4716 246.664 36.0316 247.004 35.7115C247.364 35.3715 247.794 35.2015 248.294 35.2015C248.794 35.2015 249.214 35.3715 249.554 35.7115C249.914 36.0316 250.094 36.4716 250.094 37.0316C250.094 37.5916 249.914 38.0416 249.554 38.3817C249.214 38.7017 248.794 38.8617 248.294 38.8617ZM254.502 42.1318C255.142 41.9718 255.992 41.8018 257.052 41.6218C258.112 41.4418 259.332 41.3518 260.712 41.3518C261.952 41.3518 262.982 41.5318 263.802 41.8918C264.622 42.2318 265.272 42.7218 265.752 43.3619C266.252 43.9819 266.602 44.7319 266.802 45.612C267.002 46.492 267.102 47.462 267.102 48.5221V57.2825H264.312V49.1221C264.312 48.1621 264.242 47.342 264.102 46.662C263.982 45.982 263.772 45.432 263.472 45.0119C263.172 44.5919 262.772 44.2919 262.272 44.1119C261.772 43.9119 261.152 43.8119 260.412 43.8119C260.112 43.8119 259.802 43.8219 259.482 43.8419C259.162 43.8619 258.852 43.8919 258.552 43.9319C258.272 43.9519 258.012 43.9819 257.772 44.0219C257.552 44.0619 257.392 44.0919 257.292 44.1119V57.2825H254.502V42.1318ZM270.109 46.992H277.519V49.6021H270.109V46.992ZM290.775 44.9819C290.435 44.7019 289.945 44.4319 289.305 44.1719C288.665 43.9119 287.965 43.7819 287.205 43.7819C286.405 43.7819 285.715 43.9319 285.135 44.2319C284.575 44.5119 284.115 44.9119 283.755 45.432C283.395 45.932 283.135 46.532 282.975 47.232C282.814 47.9321 282.734 48.6821 282.734 49.4821C282.734 51.3022 283.185 52.7123 284.085 53.7123C284.985 54.6924 286.185 55.1824 287.685 55.1824C288.445 55.1824 289.075 55.1524 289.575 55.0924C290.095 55.0124 290.495 54.9324 290.775 54.8524V44.9819ZM290.775 34.4815L293.565 34.0015V56.8324C292.925 57.0125 292.105 57.1925 291.105 57.3725C290.105 57.5525 288.955 57.6425 287.655 57.6425C286.455 57.6425 285.375 57.4525 284.415 57.0725C283.455 56.6924 282.634 56.1524 281.954 55.4524C281.274 54.7524 280.744 53.9023 280.364 52.9023C280.004 51.8822 279.824 50.7422 279.824 49.4821C279.824 48.2821 279.974 47.182 280.274 46.182C280.594 45.182 281.054 44.3219 281.654 43.6019C282.254 42.8819 282.985 42.3218 283.845 41.9218C284.725 41.5218 285.725 41.3218 286.845 41.3218C287.745 41.3218 288.535 41.4418 289.215 41.6818C289.915 41.9218 290.435 42.1518 290.775 42.3718V34.4815ZM297.491 49.5121C297.491 48.1321 297.691 46.932 298.091 45.912C298.491 44.8719 299.021 44.0119 299.681 43.3319C300.341 42.6518 301.101 42.1418 301.961 41.8018C302.821 41.4618 303.701 41.2918 304.601 41.2918C306.702 41.2918 308.312 41.9518 309.432 43.2719C310.552 44.5719 311.112 46.562 311.112 49.2421C311.112 49.3621 311.112 49.5221 311.112 49.7221C311.112 49.9022 311.102 50.0722 311.082 50.2322H300.401C300.521 51.8522 300.991 53.0823 301.811 53.9223C302.631 54.7624 303.911 55.1824 305.651 55.1824C306.632 55.1824 307.452 55.1024 308.112 54.9424C308.792 54.7624 309.302 54.5924 309.642 54.4323L310.032 56.7724C309.692 56.9525 309.092 57.1425 308.232 57.3425C307.392 57.5425 306.432 57.6425 305.351 57.6425C303.991 57.6425 302.811 57.4425 301.811 57.0425C300.831 56.6224 300.021 56.0524 299.381 55.3324C298.741 54.6124 298.261 53.7623 297.941 52.7823C297.641 51.7822 297.491 50.6922 297.491 49.5121ZM308.202 47.9821C308.222 46.722 307.902 45.692 307.242 44.8919C306.602 44.0719 305.711 43.6619 304.571 43.6619C303.931 43.6619 303.361 43.7919 302.861 44.0519C302.381 44.2919 301.971 44.6119 301.631 45.0119C301.291 45.412 301.021 45.872 300.821 46.392C300.641 46.912 300.521 47.442 300.461 47.9821H308.202ZM325.95 49.5121C325.95 47.6921 325.5 46.292 324.6 45.312C323.7 44.3319 322.5 43.8419 321 43.8419C320.16 43.8419 319.5 43.8719 319.02 43.9319C318.56 43.9919 318.19 44.0619 317.91 44.1419V53.9823C318.25 54.2623 318.74 54.5323 319.38 54.7924C320.02 55.0524 320.72 55.1824 321.48 55.1824C322.28 55.1824 322.96 55.0424 323.52 54.7624C324.1 54.4623 324.57 54.0623 324.93 53.5623C325.29 53.0423 325.55 52.4423 325.71 51.7622C325.87 51.0622 325.95 50.3122 325.95 49.5121ZM328.86 49.5121C328.86 50.6922 328.7 51.7822 328.38 52.7823C328.08 53.7823 327.63 54.6424 327.03 55.3624C326.43 56.0824 325.69 56.6424 324.81 57.0425C323.95 57.4425 322.96 57.6425 321.84 57.6425C320.94 57.6425 320.14 57.5225 319.44 57.2825C318.76 57.0425 318.25 56.8124 317.91 56.5924V62.8327H315.12V42.1618C315.78 42.0018 316.6 41.8318 317.58 41.6518C318.58 41.4518 319.73 41.3518 321.03 41.3518C322.23 41.3518 323.31 41.5418 324.27 41.9218C325.23 42.3018 326.05 42.8419 326.73 43.5419C327.41 44.2419 327.93 45.1019 328.29 46.122C328.67 47.122 328.86 48.2521 328.86 49.5121ZM335.397 41.6818H341.307V44.0219H335.397V51.2222C335.397 52.0022 335.457 52.6523 335.577 53.1723C335.697 53.6723 335.877 54.0723 336.117 54.3723C336.357 54.6524 336.657 54.8524 337.017 54.9724C337.377 55.0924 337.797 55.1524 338.277 55.1524C339.117 55.1524 339.787 55.0624 340.287 54.8824C340.807 54.6824 341.167 54.5423 341.367 54.4623L341.907 56.7724C341.627 56.9124 341.137 57.0825 340.437 57.2825C339.737 57.5025 338.937 57.6125 338.037 57.6125C336.977 57.6125 336.097 57.4825 335.397 57.2225C334.717 56.9425 334.167 56.5324 333.747 55.9924C333.326 55.4524 333.026 54.7924 332.846 54.0123C332.686 53.2123 332.606 52.2923 332.606 51.2522V37.3316L335.397 36.8516V41.6818ZM344.857 57.2825V34.4815L347.647 34.0015V41.9818C348.167 41.7818 348.717 41.6318 349.297 41.5318C349.898 41.4118 350.488 41.3518 351.068 41.3518C352.308 41.3518 353.338 41.5318 354.158 41.8918C354.978 42.2318 355.628 42.7218 356.108 43.3619C356.608 43.9819 356.958 44.7319 357.158 45.612C357.358 46.492 357.458 47.462 357.458 48.5221V57.2825H354.668V49.1221C354.668 48.1621 354.598 47.342 354.458 46.662C354.338 45.982 354.128 45.432 353.828 45.0119C353.528 44.5919 353.128 44.2919 352.628 44.1119C352.128 43.9119 351.508 43.8119 350.768 43.8119C350.468 43.8119 350.158 43.8319 349.838 43.8719C349.517 43.9119 349.207 43.9619 348.907 44.0219C348.627 44.0619 348.367 44.1119 348.127 44.1719C347.907 44.2319 347.747 44.2819 347.647 44.3219V57.2825H344.857ZM374.701 41.3518C374.941 41.3518 375.211 41.3718 375.511 41.4118C375.831 41.4318 376.141 41.4718 376.441 41.5318C376.741 41.5718 377.011 41.6218 377.251 41.6818C377.511 41.7218 377.701 41.7618 377.821 41.8018L377.341 44.2319C377.121 44.1519 376.751 44.0619 376.231 43.9619C375.731 43.8419 375.081 43.7819 374.281 43.7819C373.761 43.7819 373.241 43.8419 372.721 43.9619C372.22 44.0619 371.89 44.1319 371.73 44.1719V57.2825H368.94V42.3418C369.6 42.1018 370.42 41.8818 371.4 41.6818C372.38 41.4618 373.481 41.3518 374.701 41.3518ZM379.643 49.5121C379.643 48.1321 379.843 46.932 380.243 45.912C380.643 44.8719 381.173 44.0119 381.833 43.3319C382.493 42.6518 383.253 42.1418 384.113 41.8018C384.973 41.4618 385.853 41.2918 386.753 41.2918C388.853 41.2918 390.464 41.9518 391.584 43.2719C392.704 44.5719 393.264 46.562 393.264 49.2421C393.264 49.3621 393.264 49.5221 393.264 49.7221C393.264 49.9022 393.254 50.0722 393.234 50.2322H382.553C382.673 51.8522 383.143 53.0823 383.963 53.9223C384.783 54.7624 386.063 55.1824 387.803 55.1824C388.783 55.1824 389.603 55.1024 390.264 54.9424C390.944 54.7624 391.454 54.5924 391.794 54.4323L392.184 56.7724C391.844 56.9525 391.244 57.1425 390.384 57.3425C389.543 57.5425 388.583 57.6425 387.503 57.6425C386.143 57.6425 384.963 57.4425 383.963 57.0425C382.983 56.6224 382.173 56.0524 381.533 55.3324C380.893 54.6124 380.413 53.7623 380.093 52.7823C379.793 51.7822 379.643 50.6922 379.643 49.5121ZM390.354 47.9821C390.374 46.722 390.054 45.692 389.393 44.8919C388.753 44.0719 387.863 43.6619 386.723 43.6619C386.083 43.6619 385.513 43.7919 385.013 44.0519C384.533 44.2919 384.123 44.6119 383.783 45.0119C383.443 45.412 383.173 45.872 382.973 46.392C382.793 46.912 382.673 47.442 382.613 47.9821H390.354ZM409.452 41.6818C408.672 44.6019 407.752 47.402 406.692 50.0822C405.652 52.7623 404.642 55.1624 403.662 57.2825H401.142C400.162 55.1624 399.142 52.7623 398.082 50.0822C397.042 47.402 396.132 44.6019 395.352 41.6818H398.352C398.592 42.6618 398.872 43.7119 399.192 44.8319C399.532 45.932 399.882 47.032 400.242 48.1321C400.622 49.2121 401.002 50.2622 401.382 51.2822C401.762 52.3023 402.122 53.2123 402.462 54.0123C402.802 53.2123 403.162 52.3023 403.542 51.2822C403.922 50.2622 404.292 49.2121 404.652 48.1321C405.032 47.032 405.382 45.932 405.702 44.8319C406.042 43.7119 406.332 42.6618 406.572 41.6818H409.452ZM415.121 57.2825H412.331V41.6818H415.121V57.2825ZM413.711 38.8617C413.211 38.8617 412.781 38.7017 412.421 38.3817C412.081 38.0416 411.911 37.5916 411.911 37.0316C411.911 36.4716 412.081 36.0316 412.421 35.7115C412.781 35.3715 413.211 35.2015 413.711 35.2015C414.211 35.2015 414.631 35.3715 414.971 35.7115C415.331 36.0316 415.511 36.4716 415.511 37.0316C415.511 37.5916 415.331 38.0416 414.971 38.3817C414.631 38.7017 414.211 38.8617 413.711 38.8617ZM419.049 49.5121C419.049 48.1321 419.249 46.932 419.649 45.912C420.049 44.8719 420.579 44.0119 421.239 43.3319C421.899 42.6518 422.659 42.1418 423.519 41.8018C424.379 41.4618 425.259 41.2918 426.159 41.2918C428.259 41.2918 429.87 41.9518 430.99 43.2719C432.11 44.5719 432.67 46.562 432.67 49.2421C432.67 49.3621 432.67 49.5221 432.67 49.7221C432.67 49.9022 432.66 50.0722 432.64 50.2322H421.959C422.079 51.8522 422.549 53.0823 423.369 53.9223C424.189 54.7624 425.469 55.1824 427.209 55.1824C428.189 55.1824 429.009 55.1024 429.669 54.9424C430.35 54.7624 430.86 54.5924 431.2 54.4323L431.59 56.7724C431.25 56.9525 430.65 57.1425 429.789 57.3425C428.949 57.5425 427.989 57.6425 426.909 57.6425C425.549 57.6425 424.369 57.4425 423.369 57.0425C422.389 56.6224 421.579 56.0524 420.939 55.3324C420.299 54.6124 419.819 53.7623 419.499 52.7823C419.199 51.7822 419.049 50.6922 419.049 49.5121ZM429.759 47.9821C429.779 46.722 429.459 45.692 428.799 44.8919C428.159 44.0719 427.269 43.6619 426.129 43.6619C425.489 43.6619 424.919 43.7919 424.419 44.0519C423.939 44.2919 423.529 44.6119 423.189 45.0119C422.849 45.412 422.579 45.872 422.379 46.392C422.199 46.912 422.079 47.442 422.019 47.9821H429.759ZM449.428 57.2825C448.868 55.8424 448.268 54.2023 447.628 52.3623C447.008 50.5022 446.438 48.5721 445.918 46.572C445.398 48.5721 444.828 50.5022 444.208 52.3623C443.588 54.2023 442.998 55.8424 442.438 57.2825H440.008C439.088 55.2224 438.188 52.8723 437.308 50.2322C436.428 47.5921 435.598 44.7419 434.818 41.6818H437.818C438.018 42.6218 438.258 43.6419 438.538 44.7419C438.818 45.842 439.108 46.942 439.408 48.0421C439.728 49.1421 440.058 50.2022 440.398 51.2222C440.738 52.2423 441.058 53.1323 441.358 53.8923C441.698 52.9523 442.028 51.9622 442.348 50.9222C442.688 49.8621 443.008 48.8021 443.308 47.7421C443.608 46.662 443.888 45.612 444.148 44.5919C444.428 43.5519 444.668 42.5818 444.868 41.6818H447.178C447.358 42.5818 447.578 43.5519 447.838 44.5919C448.098 45.612 448.378 46.662 448.678 47.7421C448.978 48.8021 449.288 49.8621 449.608 50.9222C449.948 51.9622 450.288 52.9523 450.628 53.8923C450.928 53.1323 451.238 52.2423 451.558 51.2222C451.898 50.2022 452.228 49.1421 452.548 48.0421C452.868 46.942 453.168 45.842 453.448 44.7419C453.728 43.6419 453.968 42.6218 454.168 41.6818H457.048C456.268 44.7419 455.438 47.5921 454.558 50.2322C453.678 52.8723 452.778 55.2224 451.858 57.2825H449.428ZM463.629 55.2724C464.769 55.2724 465.609 55.1224 466.149 54.8224C466.709 54.5223 466.989 54.0423 466.989 53.3823C466.989 52.7023 466.719 52.1622 466.179 51.7622C465.639 51.3622 464.749 50.9122 463.509 50.4122C462.909 50.1722 462.329 49.9322 461.769 49.6921C461.229 49.4321 460.759 49.1321 460.359 48.7921C459.959 48.4521 459.639 48.0421 459.399 47.5621C459.159 47.082 459.039 46.492 459.039 45.792C459.039 44.4119 459.549 43.3219 460.569 42.5218C461.589 41.7018 462.979 41.2918 464.739 41.2918C465.179 41.2918 465.619 41.3218 466.059 41.3818C466.499 41.4218 466.909 41.4818 467.289 41.5618C467.669 41.6218 467.999 41.6918 468.279 41.7718C468.579 41.8518 468.809 41.9218 468.969 41.9818L468.459 44.3819C468.159 44.2219 467.689 44.0619 467.049 43.9019C466.409 43.7219 465.639 43.6319 464.739 43.6319C463.959 43.6319 463.279 43.7919 462.699 44.1119C462.119 44.4119 461.829 44.8919 461.829 45.552C461.829 45.892 461.889 46.192 462.009 46.452C462.149 46.712 462.349 46.952 462.609 47.172C462.889 47.372 463.229 47.5621 463.629 47.7421C464.029 47.9221 464.509 48.1121 465.069 48.3121C465.809 48.5921 466.469 48.8721 467.049 49.1521C467.629 49.4121 468.119 49.7221 468.519 50.0822C468.939 50.4422 469.259 50.8822 469.479 51.4022C469.699 51.9022 469.809 52.5223 469.809 53.2623C469.809 54.7024 469.269 55.7924 468.189 56.5324C467.129 57.2725 465.609 57.6425 463.629 57.6425C462.249 57.6425 461.169 57.5225 460.389 57.2825C459.609 57.0625 459.079 56.8924 458.799 56.7724L459.309 54.3723C459.629 54.4923 460.139 54.6724 460.839 54.9124C461.539 55.1524 462.469 55.2724 463.629 55.2724ZM479.312 51.7622C479.312 50.9822 479.432 50.2922 479.672 49.6921C479.912 49.0721 480.232 48.5221 480.632 48.0421C481.052 47.5421 481.532 47.112 482.072 46.752C482.612 46.372 483.172 46.042 483.752 45.762C482.272 44.2819 481.532 42.7518 481.532 41.1718C481.532 40.3717 481.662 39.6517 481.922 39.0117C482.202 38.3717 482.572 37.8316 483.032 37.3916C483.512 36.9516 484.072 36.6116 484.712 36.3716C485.372 36.1316 486.092 36.0116 486.872 36.0116C487.672 36.0116 488.382 36.1316 489.002 36.3716C489.642 36.6116 490.172 36.9316 490.592 37.3316C491.032 37.7316 491.362 38.2117 491.582 38.7717C491.802 39.3317 491.912 39.9217 491.912 40.5418C491.912 41.2418 491.792 41.8718 491.552 42.4318C491.332 42.9919 491.022 43.5019 490.622 43.9619C490.242 44.4219 489.802 44.8419 489.302 45.222C488.802 45.602 488.272 45.942 487.712 46.242L492.572 51.1922C493.252 49.9322 493.692 48.5321 493.892 46.992L496.202 47.292C496.122 48.1121 495.912 49.0121 495.572 49.9922C495.252 50.9522 494.792 51.9122 494.192 52.8723C494.892 53.6323 495.532 54.3823 496.112 55.1224C496.713 55.8624 497.203 56.5824 497.583 57.2825H494.642C494.402 56.8824 494.102 56.4724 493.742 56.0524C493.402 55.6324 493.042 55.2124 492.662 54.7924C491.842 55.6124 490.892 56.2824 489.812 56.8024C488.732 57.3025 487.492 57.5525 486.092 57.5525C484.792 57.5525 483.712 57.3725 482.852 57.0125C481.992 56.6324 481.292 56.1624 480.752 55.6024C480.232 55.0224 479.862 54.3923 479.642 53.7123C479.422 53.0323 479.312 52.3823 479.312 51.7622ZM482.102 51.7022C482.102 52.0622 482.172 52.4523 482.312 52.8723C482.452 53.2923 482.682 53.6823 483.002 54.0423C483.322 54.3823 483.732 54.6724 484.232 54.9124C484.752 55.1324 485.392 55.2424 486.152 55.2424C487.132 55.2424 488.032 55.0624 488.852 54.7024C489.692 54.3423 490.432 53.8323 491.072 53.1723L485.222 47.262C484.862 47.442 484.492 47.6521 484.112 47.8921C483.752 48.1321 483.422 48.4321 483.122 48.7921C482.822 49.1321 482.572 49.5421 482.372 50.0222C482.192 50.5022 482.102 51.0622 482.102 51.7022ZM489.392 40.6318C489.392 39.9517 489.162 39.3817 488.702 38.9217C488.262 38.4417 487.652 38.2017 486.872 38.2017C485.992 38.2017 485.312 38.4717 484.832 39.0117C484.372 39.5317 484.142 40.1817 484.142 40.9618C484.142 42.2618 484.822 43.5319 486.182 44.7719C486.622 44.5519 487.032 44.3119 487.412 44.0519C487.812 43.7919 488.152 43.4919 488.432 43.1519C488.732 42.8118 488.962 42.4418 489.122 42.0418C489.302 41.6218 489.392 41.1518 489.392 40.6318ZM513.017 41.3518C513.257 41.3518 513.527 41.3718 513.827 41.4118C514.147 41.4318 514.457 41.4718 514.757 41.5318C515.057 41.5718 515.327 41.6218 515.567 41.6818C515.827 41.7218 516.017 41.7618 516.137 41.8018L515.657 44.2319C515.437 44.1519 515.067 44.0619 514.547 43.9619C514.047 43.8419 513.397 43.7819 512.597 43.7819C512.077 43.7819 511.557 43.8419 511.037 43.9619C510.537 44.0619 510.207 44.1319 510.047 44.1719V57.2825H507.257V42.3418C507.917 42.1018 508.737 41.8818 509.717 41.6818C510.697 41.4618 511.797 41.3518 513.017 41.3518ZM524.11 55.2724C524.77 55.2724 525.35 55.2624 525.85 55.2424C526.37 55.2024 526.8 55.1424 527.14 55.0624V50.4122C526.94 50.3122 526.61 50.2322 526.15 50.1722C525.71 50.0922 525.17 50.0522 524.53 50.0522C524.11 50.0522 523.66 50.0822 523.18 50.1422C522.72 50.2022 522.29 50.3322 521.89 50.5322C521.51 50.7122 521.19 50.9722 520.93 51.3122C520.67 51.6322 520.54 52.0622 520.54 52.6023C520.54 53.6023 520.86 54.3023 521.5 54.7024C522.14 55.0824 523.01 55.2724 524.11 55.2724ZM523.87 41.2918C524.99 41.2918 525.93 41.4418 526.69 41.7418C527.47 42.0218 528.09 42.4318 528.55 42.9719C529.03 43.4919 529.37 44.1219 529.57 44.8619C529.77 45.582 529.87 46.382 529.87 47.262V57.0125C529.63 57.0525 529.29 57.1125 528.85 57.1925C528.43 57.2525 527.95 57.3125 527.41 57.3725C526.87 57.4325 526.28 57.4825 525.64 57.5225C525.02 57.5825 524.4 57.6125 523.78 57.6125C522.9 57.6125 522.09 57.5225 521.35 57.3425C520.61 57.1625 519.97 56.8824 519.43 56.5024C518.89 56.1024 518.47 55.5824 518.17 54.9424C517.869 54.3023 517.719 53.5323 517.719 52.6323C517.719 51.7722 517.889 51.0322 518.23 50.4122C518.59 49.7921 519.07 49.2921 519.67 48.9121C520.27 48.5321 520.97 48.2521 521.77 48.0721C522.57 47.8921 523.41 47.8021 524.29 47.8021C524.57 47.8021 524.86 47.8221 525.16 47.8621C525.46 47.8821 525.74 47.9221 526 47.9821C526.28 48.0221 526.52 48.0621 526.72 48.1021C526.92 48.1421 527.06 48.1721 527.14 48.1921V47.412C527.14 46.952 527.09 46.502 526.99 46.062C526.89 45.602 526.71 45.202 526.45 44.8619C526.19 44.5019 525.83 44.2219 525.37 44.0219C524.93 43.8019 524.35 43.6919 523.63 43.6919C522.71 43.6919 521.9 43.7619 521.2 43.9019C520.52 44.0219 520.01 44.1519 519.67 44.2919L519.34 41.9818C519.7 41.8218 520.3 41.6718 521.14 41.5318C521.98 41.3718 522.89 41.2918 523.87 41.2918ZM534.504 42.1318C535.144 41.9718 535.994 41.8018 537.054 41.6218C538.114 41.4418 539.334 41.3518 540.714 41.3518C541.954 41.3518 542.984 41.5318 543.804 41.8918C544.624 42.2318 545.274 42.7218 545.755 43.3619C546.255 43.9819 546.605 44.7319 546.805 45.612C547.005 46.492 547.105 47.462 547.105 48.5221V57.2825H544.314V49.1221C544.314 48.1621 544.244 47.342 544.104 46.662C543.984 45.982 543.774 45.432 543.474 45.0119C543.174 44.5919 542.774 44.2919 542.274 44.1119C541.774 43.9119 541.154 43.8119 540.414 43.8119C540.114 43.8119 539.804 43.8219 539.484 43.8419C539.164 43.8619 538.854 43.8919 538.554 43.9319C538.274 43.9519 538.014 43.9819 537.774 44.0219C537.554 44.0619 537.394 44.0919 537.294 44.1119V57.2825H534.504V42.1318ZM557.372 48.7021C557.972 49.1621 558.602 49.7321 559.262 50.4122C559.942 51.0922 560.602 51.8322 561.242 52.6323C561.902 53.4123 562.522 54.2123 563.102 55.0324C563.682 55.8324 564.172 56.5824 564.572 57.2825H561.302C560.882 56.5824 560.392 55.8724 559.832 55.1524C559.292 54.4123 558.722 53.7123 558.122 53.0523C557.522 52.3723 556.912 51.7522 556.292 51.1922C555.671 50.6322 555.081 50.1622 554.521 49.7821V57.2825H551.731V34.4815L554.521 34.0015V48.2221C555.001 47.7421 555.531 47.212 556.112 46.632C556.692 46.052 557.262 45.462 557.822 44.8619C558.382 44.2619 558.912 43.6919 559.412 43.1519C559.912 42.5918 560.342 42.1018 560.702 41.6818H563.972C563.512 42.1818 563.012 42.7318 562.472 43.3319C561.932 43.9319 561.372 44.5419 560.792 45.1619C560.212 45.762 559.622 46.372 559.022 46.992C558.442 47.5921 557.892 48.1621 557.372 48.7021ZM565.745 49.5121C565.745 48.1321 565.945 46.932 566.345 45.912C566.745 44.8719 567.275 44.0119 567.935 43.3319C568.595 42.6518 569.355 42.1418 570.215 41.8018C571.075 41.4618 571.955 41.2918 572.855 41.2918C574.955 41.2918 576.565 41.9518 577.685 43.2719C578.805 44.5719 579.365 46.562 579.365 49.2421C579.365 49.3621 579.365 49.5221 579.365 49.7221C579.365 49.9022 579.355 50.0722 579.335 50.2322H568.655C568.775 51.8522 569.245 53.0823 570.065 53.9223C570.885 54.7624 572.165 55.1824 573.905 55.1824C574.885 55.1824 575.705 55.1024 576.365 54.9424C577.045 54.7624 577.555 54.5924 577.895 54.4323L578.285 56.7724C577.945 56.9525 577.345 57.1425 576.485 57.3425C575.645 57.5425 574.685 57.6425 573.605 57.6425C572.245 57.6425 571.065 57.4425 570.065 57.0425C569.085 56.6224 568.275 56.0524 567.635 55.3324C566.995 54.6124 566.515 53.7623 566.195 52.7823C565.895 51.7822 565.745 50.6922 565.745 49.5121ZM576.455 47.9821C576.475 46.722 576.155 45.692 575.495 44.8919C574.855 44.0719 573.965 43.6619 572.825 43.6619C572.185 43.6619 571.615 43.7919 571.115 44.0519C570.635 44.2919 570.225 44.6119 569.885 45.0119C569.545 45.412 569.275 45.872 569.075 46.392C568.895 46.912 568.775 47.442 568.715 47.9821H576.455ZM593.454 44.9819C593.114 44.7019 592.624 44.4319 591.984 44.1719C591.344 43.9119 590.644 43.7819 589.884 43.7819C589.084 43.7819 588.394 43.9319 587.813 44.2319C587.253 44.5119 586.793 44.9119 586.433 45.432C586.073 45.932 585.813 46.532 585.653 47.232C585.493 47.9321 585.413 48.6821 585.413 49.4821C585.413 51.3022 585.863 52.7123 586.763 53.7123C587.663 54.6924 588.864 55.1824 590.364 55.1824C591.124 55.1824 591.754 55.1524 592.254 55.0924C592.774 55.0124 593.174 54.9324 593.454 54.8524V44.9819ZM593.454 34.4815L596.244 34.0015V56.8324C595.604 57.0125 594.784 57.1925 593.784 57.3725C592.784 57.5525 591.634 57.6425 590.334 57.6425C589.134 57.6425 588.053 57.4525 587.093 57.0725C586.133 56.6924 585.313 56.1524 584.633 55.4524C583.953 54.7524 583.423 53.9023 583.043 52.9023C582.683 51.8822 582.503 50.7422 582.503 49.4821C582.503 48.2821 582.653 47.182 582.953 46.182C583.273 45.182 583.733 44.3219 584.333 43.6019C584.933 42.8819 585.663 42.3218 586.523 41.9218C587.403 41.5218 588.404 41.3218 589.524 41.3218C590.424 41.3218 591.214 41.4418 591.894 41.6818C592.594 41.9218 593.114 42.1518 593.454 42.3718V34.4815ZM612.664 57.5825C610.944 57.5425 609.724 57.1725 609.004 56.4724C608.284 55.7724 607.924 54.6824 607.924 53.2023V34.4815L610.714 34.0015V52.7523C610.714 53.2123 610.754 53.5923 610.834 53.8923C610.914 54.1923 611.044 54.4323 611.224 54.6124C611.404 54.7924 611.644 54.9324 611.944 55.0324C612.244 55.1124 612.614 55.1824 613.054 55.2424L612.664 57.5825ZM618.977 57.2825H616.187V41.6818H618.977V57.2825ZM617.567 38.8617C617.067 38.8617 616.637 38.7017 616.277 38.3817C615.937 38.0416 615.767 37.5916 615.767 37.0316C615.767 36.4716 615.937 36.0316 616.277 35.7115C616.637 35.3715 617.067 35.2015 617.567 35.2015C618.067 35.2015 618.487 35.3715 618.827 35.7115C619.187 36.0316 619.367 36.4716 619.367 37.0316C619.367 37.5916 619.187 38.0416 618.827 38.3817C618.487 38.7017 618.067 38.8617 617.567 38.8617ZM627.406 55.2724C628.546 55.2724 629.386 55.1224 629.926 54.8224C630.486 54.5223 630.766 54.0423 630.766 53.3823C630.766 52.7023 630.496 52.1622 629.956 51.7622C629.416 51.3622 628.526 50.9122 627.286 50.4122C626.686 50.1722 626.106 49.9322 625.545 49.6921C625.005 49.4321 624.535 49.1321 624.135 48.7921C623.735 48.4521 623.415 48.0421 623.175 47.5621C622.935 47.082 622.815 46.492 622.815 45.792C622.815 44.4119 623.325 43.3219 624.345 42.5218C625.365 41.7018 626.756 41.2918 628.516 41.2918C628.956 41.2918 629.396 41.3218 629.836 41.3818C630.276 41.4218 630.686 41.4818 631.066 41.5618C631.446 41.6218 631.776 41.6918 632.056 41.7718C632.356 41.8518 632.586 41.9218 632.746 41.9818L632.236 44.3819C631.936 44.2219 631.466 44.0619 630.826 43.9019C630.186 43.7219 629.416 43.6319 628.516 43.6319C627.736 43.6319 627.056 43.7919 626.476 44.1119C625.895 44.4119 625.605 44.8919 625.605 45.552C625.605 45.892 625.665 46.192 625.785 46.452C625.925 46.712 626.126 46.952 626.386 47.172C626.666 47.372 627.006 47.5621 627.406 47.7421C627.806 47.9221 628.286 48.1121 628.846 48.3121C629.586 48.5921 630.246 48.8721 630.826 49.1521C631.406 49.4121 631.896 49.7221 632.296 50.0822C632.716 50.4422 633.036 50.8822 633.256 51.4022C633.476 51.9022 633.586 52.5223 633.586 53.2623C633.586 54.7024 633.046 55.7924 631.966 56.5324C630.906 57.2725 629.386 57.6425 627.406 57.6425C626.026 57.6425 624.945 57.5225 624.165 57.2825C623.385 57.0625 622.855 56.8924 622.575 56.7724L623.085 54.3723C623.405 54.4923 623.915 54.6724 624.615 54.9124C625.315 55.1524 626.246 55.2724 627.406 55.2724ZM639.775 41.6818H645.685V44.0219H639.775V51.2222C639.775 52.0022 639.835 52.6523 639.955 53.1723C640.075 53.6723 640.255 54.0723 640.495 54.3723C640.735 54.6524 641.035 54.8524 641.395 54.9724C641.755 55.0924 642.175 55.1524 642.655 55.1524C643.495 55.1524 644.165 55.0624 644.665 54.8824C645.185 54.6824 645.545 54.5423 645.745 54.4623L646.285 56.7724C646.005 56.9124 645.515 57.0825 644.815 57.2825C644.115 57.5025 643.315 57.6125 642.415 57.6125C641.355 57.6125 640.475 57.4825 639.775 57.2225C639.095 56.9425 638.545 56.5324 638.125 55.9924C637.705 55.4524 637.405 54.7924 637.225 54.0123C637.065 53.2123 636.985 52.2923 636.985 51.2522V37.3316L639.775 36.8516V41.6818ZM652.866 55.2724C654.006 55.2724 654.846 55.1224 655.386 54.8224C655.946 54.5223 656.226 54.0423 656.226 53.3823C656.226 52.7023 655.956 52.1622 655.416 51.7622C654.876 51.3622 653.986 50.9122 652.746 50.4122C652.146 50.1722 651.566 49.9322 651.006 49.6921C650.466 49.4321 649.996 49.1321 649.595 48.7921C649.195 48.4521 648.875 48.0421 648.635 47.5621C648.395 47.082 648.275 46.492 648.275 45.792C648.275 44.4119 648.785 43.3219 649.805 42.5218C650.826 41.7018 652.216 41.2918 653.976 41.2918C654.416 41.2918 654.856 41.3218 655.296 41.3818C655.736 41.4218 656.146 41.4818 656.526 41.5618C656.906 41.6218 657.236 41.6918 657.516 41.7718C657.816 41.8518 658.046 41.9218 658.206 41.9818L657.696 44.3819C657.396 44.2219 656.926 44.0619 656.286 43.9019C655.646 43.7219 654.876 43.6319 653.976 43.6319C653.196 43.6319 652.516 43.7919 651.936 44.1119C651.356 44.4119 651.066 44.8919 651.066 45.552C651.066 45.892 651.126 46.192 651.246 46.452C651.386 46.712 651.586 46.952 651.846 47.172C652.126 47.372 652.466 47.5621 652.866 47.7421C653.266 47.9221 653.746 48.1121 654.306 48.3121C655.046 48.5921 655.706 48.8721 656.286 49.1521C656.866 49.4121 657.356 49.7221 657.756 50.0822C658.176 50.4422 658.496 50.8822 658.716 51.4022C658.936 51.9022 659.046 52.5223 659.046 53.2623C659.046 54.7024 658.506 55.7924 657.426 56.5324C656.366 57.2725 654.846 57.6425 652.866 57.6425C651.486 57.6425 650.406 57.5225 649.625 57.2825C648.845 57.0625 648.315 56.8924 648.035 56.7724L648.545 54.3723C648.865 54.4923 649.375 54.6724 650.076 54.9124C650.776 55.1524 651.706 55.2724 652.866 55.2724Z" fill="white"/>
<path d="M180.164 51.1622C180.164 50.5822 180.034 50.0722 179.774 49.6321C179.514 49.1721 179.064 48.7921 178.424 48.4921C177.784 48.1921 176.924 47.9621 175.844 47.8021C174.764 47.6421 173.404 47.5621 171.764 47.5621C171.984 45.702 172.164 43.8119 172.304 41.8918C172.444 39.9717 172.554 38.1717 172.634 36.4916H183.885V40.2417H176.384C176.344 40.9618 176.294 41.6618 176.234 42.3418C176.194 43.0019 176.144 43.5819 176.084 44.0819C179.004 44.2819 181.154 44.9719 182.534 46.152C183.935 47.312 184.635 48.9321 184.635 51.0122C184.635 51.9722 184.465 52.8623 184.125 53.6823C183.785 54.5023 183.274 55.2124 182.594 55.8124C181.914 56.4124 181.054 56.8824 180.014 57.2225C178.994 57.5625 177.794 57.7325 176.414 57.7325C175.874 57.7325 175.304 57.6925 174.704 57.6125C174.124 57.5525 173.554 57.4625 172.994 57.3425C172.454 57.2425 171.964 57.1325 171.524 57.0125C171.084 56.8924 170.744 56.7724 170.504 56.6524L171.314 52.9623C171.814 53.1823 172.474 53.4023 173.294 53.6223C174.114 53.8223 175.094 53.9223 176.234 53.9223C177.614 53.9223 178.614 53.6523 179.234 53.1123C179.854 52.5523 180.164 51.9022 180.164 51.1622ZM202.436 46.842C202.436 50.3422 201.766 53.0323 200.426 54.9124C199.106 56.7724 197.276 57.7025 194.936 57.7025C192.596 57.7025 190.756 56.7724 189.416 54.9124C188.095 53.0323 187.435 50.3422 187.435 46.842C187.435 45.1019 187.605 43.5619 187.945 42.2218C188.305 40.8818 188.816 39.7517 189.476 38.8317C190.136 37.9116 190.926 37.2116 191.846 36.7316C192.766 36.2516 193.796 36.0116 194.936 36.0116C197.276 36.0116 199.106 36.9516 200.426 38.8317C201.766 40.6918 202.436 43.3619 202.436 46.842ZM197.876 46.842C197.876 45.802 197.826 44.8619 197.726 44.0219C197.626 43.1619 197.466 42.4218 197.246 41.8018C197.026 41.1818 196.726 40.7018 196.346 40.3617C195.966 40.0217 195.496 39.8517 194.936 39.8517C194.376 39.8517 193.906 40.0217 193.526 40.3617C193.166 40.7018 192.866 41.1818 192.626 41.8018C192.406 42.4218 192.246 43.1619 192.146 44.0219C192.046 44.8619 191.996 45.802 191.996 46.842C191.996 47.8821 192.046 48.8321 192.146 49.6921C192.246 50.5522 192.406 51.2922 192.626 51.9122C192.866 52.5323 193.166 53.0123 193.526 53.3523C193.906 53.6923 194.376 53.8623 194.936 53.8623C195.496 53.8623 195.966 53.6923 196.346 53.3523C196.726 53.0123 197.026 52.5323 197.246 51.9122C197.466 51.2922 197.626 50.5522 197.726 49.6921C197.826 48.8321 197.876 47.8821 197.876 46.842ZM219.488 46.842C219.488 50.3422 218.818 53.0323 217.478 54.9124C216.157 56.7724 214.327 57.7025 211.987 57.7025C209.647 57.7025 207.807 56.7724 206.467 54.9124C205.147 53.0323 204.487 50.3422 204.487 46.842C204.487 45.1019 204.657 43.5619 204.997 42.2218C205.357 40.8818 205.867 39.7517 206.527 38.8317C207.187 37.9116 207.977 37.2116 208.897 36.7316C209.817 36.2516 210.847 36.0116 211.987 36.0116C214.327 36.0116 216.157 36.9516 217.478 38.8317C218.818 40.6918 219.488 43.3619 219.488 46.842ZM214.927 46.842C214.927 45.802 214.877 44.8619 214.777 44.0219C214.677 43.1619 214.517 42.4218 214.297 41.8018C214.077 41.1818 213.777 40.7018 213.397 40.3617C213.017 40.0217 212.547 39.8517 211.987 39.8517C211.427 39.8517 210.957 40.0217 210.577 40.3617C210.217 40.7018 209.917 41.1818 209.677 41.8018C209.457 42.4218 209.297 43.1619 209.197 44.0219C209.097 44.8619 209.047 45.802 209.047 46.842C209.047 47.8821 209.097 48.8321 209.197 49.6921C209.297 50.5522 209.457 51.2922 209.677 51.9122C209.917 52.5323 210.217 53.0123 210.577 53.3523C210.957 53.6923 211.427 53.8623 211.987 53.8623C212.547 53.8623 213.017 53.6923 213.397 53.3523C213.777 53.0123 214.077 52.5323 214.297 51.9122C214.517 51.2922 214.677 50.5522 214.777 49.6921C214.877 48.8321 214.927 47.8821 214.927 46.842ZM221.988 46.452H226.999V40.9018H231.079V46.452H236.089V50.2022H231.079V55.7524H226.999V50.2022H221.988V46.452Z" fill="url(#paint0_linear_2006_20)"/>
<defs>
<linearGradient id="paint0_linear_2006_20" x1="388.074" y1="25.7811" x2="388.074" y2="65.2828" gradientUnits="userSpaceOnUse">
<stop stop-color="#E0FF04"/>
<stop offset="0.795984" stop-color="#4FFFE3"/>
</linearGradient>
</defs>
</svg>
