<svg width="14" height="14" viewBox="0 0 14 14" fill="none" xmlns="http://www.w3.org/2000/svg">
<path d="M6.53775 1.12081C6.70787 0.708315 7.2921 0.708314 7.46222 1.12081L8.88447 4.56942C8.9548 4.73995 9.11331 4.85791 9.29685 4.8763L12.898 5.23711C13.3263 5.28002 13.5038 5.80815 13.1883 6.10104L10.4417 8.65105C10.3128 8.77065 10.2563 8.94912 10.2927 9.1211L11.0833 12.8534C11.1746 13.2843 10.7047 13.6141 10.3305 13.3819L7.26369 11.4781C7.10218 11.3779 6.89779 11.3779 6.73628 11.4781L3.66948 13.3819C3.29532 13.6141 2.82537 13.2843 2.91663 12.8534L3.70727 9.1211C3.7437 8.94912 3.68714 8.77065 3.55831 8.65105L0.811639 6.10104C0.496158 5.80815 0.673647 5.28002 1.10198 5.2371L4.70312 4.8763C4.88667 4.85791 5.04518 4.73995 5.11551 4.56942L6.53775 1.12081Z" fill="#FBBC04"/>
</svg>
