<svg width="1144" height="144" viewBox="0 0 1144 144" fill="none" xmlns="http://www.w3.org/2000/svg">
<path d="M47.2656 6.83455V17.7863H30.0557V63.8991H17.21V17.7863H1.7054e-05V6.83455H47.2656ZM54.6978 63.8991V1.97624L66.9671 -2.42848e-05V20.7507C67.7905 20.4762 68.8336 20.2292 70.0962 20.0096C71.4137 19.7351 72.6763 19.5979 73.884 19.5979C77.3974 19.5979 80.3069 20.092 82.6125 21.0801C84.973 22.0133 86.8395 23.3583 88.2119 25.115C89.6392 26.8716 90.6273 28.9577 91.1763 31.3731C91.7802 33.7886 92.0821 36.4785 92.0821 39.4429V63.8991H79.8128V40.9251C79.8128 36.9725 79.2913 34.1728 78.2483 32.5259C77.2601 30.8791 75.3937 30.0556 72.6488 30.0556C71.5509 30.0556 70.5079 30.1654 69.5198 30.385C68.5865 30.5497 67.7356 30.7418 66.9671 30.9614V63.8991H54.6978ZM101.129 42.5719C101.129 38.7292 101.705 35.3805 102.858 32.5259C104.066 29.6164 105.63 27.201 107.552 25.2797C109.473 23.3583 111.669 21.9035 114.139 20.9154C116.665 19.9273 119.245 19.4332 121.88 19.4332C128.028 19.4332 132.886 21.3271 136.455 25.115C140.023 28.8479 141.807 34.365 141.807 41.6661C141.807 42.3798 141.78 43.1758 141.725 44.0541C141.67 44.8776 141.615 45.6187 141.56 46.2774H113.728C114.002 48.8026 115.182 50.8064 117.268 52.2886C119.355 53.7707 122.154 54.5118 125.668 54.5118C127.918 54.5118 130.114 54.3197 132.255 53.9354C134.451 53.4963 136.235 52.9748 137.607 52.3709L139.254 62.3345C138.596 62.6639 137.717 62.9933 136.619 63.3227C135.521 63.6521 134.286 63.9265 132.914 64.1461C131.596 64.4206 130.169 64.6402 128.632 64.8049C127.095 64.9696 125.558 65.0519 124.021 65.0519C120.123 65.0519 116.72 64.4755 113.81 63.3227C110.955 62.1699 108.567 60.6053 106.646 58.6291C104.78 56.5979 103.38 54.2099 102.447 51.4651C101.568 48.7203 101.129 45.7559 101.129 42.5719ZM129.949 37.8783C129.895 36.8353 129.702 35.8197 129.373 34.8316C129.099 33.8434 128.632 32.9651 127.973 32.1966C127.369 31.428 126.573 30.7967 125.585 30.3026C124.652 29.8086 123.472 29.5615 122.044 29.5615C120.672 29.5615 119.492 29.8086 118.504 30.3026C117.515 30.7418 116.692 31.3457 116.033 32.1142C115.375 32.8828 114.853 33.7886 114.469 34.8316C114.139 35.8197 113.892 36.8353 113.728 37.8783H129.949ZM197.407 39.0311C196.309 43.2032 195.129 47.3479 193.867 51.4651C192.659 55.5823 191.369 59.727 189.996 63.8991H180.444C179.456 61.5934 178.386 58.8486 177.233 55.6647C176.08 52.4807 174.873 49.0222 173.61 45.2893C172.402 41.5015 171.14 37.5215 169.822 33.3494C168.559 29.1224 167.324 24.8679 166.117 20.586H179.045C179.484 22.5623 179.95 24.7307 180.444 27.0912C180.993 29.3969 181.542 31.7848 182.091 34.2552C182.695 36.7255 183.299 39.2233 183.903 41.7485C184.562 44.2188 185.22 46.6068 185.879 48.9124C186.593 46.497 187.279 44.0267 187.938 41.5015C188.651 38.9762 189.31 36.5059 189.914 34.0905C190.573 31.6202 191.177 29.2596 191.726 27.0089C192.33 24.7032 192.851 22.5623 193.29 20.586H202.183C202.623 22.5623 203.117 24.7032 203.666 27.0089C204.215 29.2596 204.791 31.6202 205.395 34.0905C205.999 36.5059 206.63 38.9762 207.289 41.5015C207.947 44.0267 208.634 46.497 209.347 48.9124C210.006 46.6068 210.665 44.2188 211.324 41.7485C211.982 39.2233 212.586 36.7255 213.135 34.2552C213.739 31.7848 214.288 29.3969 214.782 27.0912C215.331 24.7307 215.825 22.5623 216.264 20.586H229.028C227.82 24.8679 226.557 29.1224 225.24 33.3494C223.977 37.5215 222.715 41.5015 221.452 45.2893C220.244 49.0222 219.036 52.4807 217.829 55.6647C216.676 58.8486 215.605 61.5934 214.617 63.8991H205.065C203.693 59.727 202.348 55.5823 201.031 51.4651C199.713 47.3479 198.505 43.2032 197.407 39.0311ZM275.178 42.1602C275.178 45.5638 274.684 48.6929 273.696 51.5475C272.708 54.3472 271.281 56.7626 269.414 58.7937C267.548 60.77 265.297 62.3071 262.662 63.405C260.082 64.5029 257.172 65.0519 253.933 65.0519C250.749 65.0519 247.84 64.5029 245.205 63.405C242.625 62.3071 240.402 60.77 238.535 58.7937C236.669 56.7626 235.214 54.3472 234.171 51.5475C233.128 48.6929 232.606 45.5638 232.606 42.1602C232.606 38.7567 233.128 35.655 234.171 32.8553C235.269 30.0556 236.751 27.6676 238.617 25.6914C240.539 23.7151 242.79 22.178 245.37 21.0801C248.005 19.9822 250.859 19.4332 253.933 19.4332C257.063 19.4332 259.917 19.9822 262.497 21.0801C265.132 22.178 267.383 23.7151 269.249 25.6914C271.116 27.6676 272.571 30.0556 273.614 32.8553C274.657 35.655 275.178 38.7567 275.178 42.1602ZM262.662 42.1602C262.662 38.3724 261.893 35.408 260.356 33.267C258.874 31.0712 256.733 29.9733 253.933 29.9733C251.134 29.9733 248.965 31.0712 247.428 33.267C245.891 35.408 245.123 38.3724 245.123 42.1602C245.123 45.948 245.891 48.9673 247.428 51.2181C248.965 53.4139 251.134 54.5118 253.933 54.5118C256.733 54.5118 258.874 53.4139 260.356 51.2181C261.893 48.9673 262.662 45.948 262.662 42.1602ZM310.786 31.4555C309.688 31.181 308.398 30.9065 306.916 30.632C305.433 30.3026 303.841 30.138 302.14 30.138C301.371 30.138 300.438 30.2203 299.34 30.385C298.297 30.4948 297.501 30.632 296.952 30.7967V63.8991H284.683V22.8917C286.878 22.1231 289.459 21.4095 292.423 20.7507C295.442 20.0371 298.791 19.6802 302.469 19.6802C303.128 19.6802 303.924 19.7351 304.857 19.8449C305.79 19.8998 306.723 20.0096 307.657 20.1743C308.59 20.2841 309.523 20.4488 310.456 20.6684C311.39 20.8331 312.186 21.0526 312.844 21.3271L310.786 31.4555ZM336.714 64.7225C333.146 64.6676 330.236 64.2834 327.985 63.5697C325.79 62.8561 324.033 61.8679 322.715 60.6053C321.453 59.2878 320.574 57.7233 320.08 55.9117C319.641 54.0452 319.422 51.9592 319.422 49.6535V1.97624L331.691 -2.42848e-05V47.1832C331.691 48.2811 331.773 49.2693 331.938 50.1476C332.103 51.0259 332.405 51.767 332.844 52.3709C333.338 52.9748 334.024 53.4688 334.902 53.8531C335.781 54.2374 336.961 54.4844 338.443 54.5942L336.714 64.7225ZM355.934 41.9132C355.934 45.701 356.784 48.7478 358.486 51.0534C360.188 53.359 362.713 54.5118 366.062 54.5118C367.16 54.5118 368.175 54.4844 369.109 54.4295C370.042 54.3197 370.81 54.2099 371.414 54.1001V31.7848C370.646 31.2908 369.63 30.8791 368.367 30.5497C367.16 30.2203 365.925 30.0556 364.662 30.0556C358.843 30.0556 355.934 34.0081 355.934 41.9132ZM383.684 62.4992C382.586 62.8286 381.323 63.158 379.896 63.4874C378.468 63.7618 376.959 64.0089 375.367 64.2285C373.83 64.448 372.238 64.6127 370.591 64.7225C368.999 64.8872 367.462 64.9696 365.98 64.9696C362.411 64.9696 359.227 64.448 356.428 63.405C353.628 62.362 351.267 60.8798 349.346 58.9584C347.425 56.9822 345.942 54.6216 344.899 51.8768C343.911 49.0771 343.417 45.948 343.417 42.4896C343.417 38.9762 343.856 35.8197 344.735 33.02C345.613 30.1654 346.876 27.75 348.523 25.7737C350.169 23.7975 352.173 22.2878 354.534 21.2448C356.949 20.2018 359.694 19.6802 362.768 19.6802C364.47 19.6802 365.98 19.8449 367.297 20.1743C368.669 20.5037 370.042 20.9703 371.414 21.5742V1.97624L383.684 -2.42848e-05V62.4992ZM406.92 0.741074C407.03 1.50962 407.112 2.30561 407.167 3.12905C407.222 3.9525 407.249 4.55635 407.249 4.94063C407.249 8.61867 406.591 12.132 405.273 15.4807C403.956 18.7745 402.336 21.5742 400.415 23.8798L391.769 21.9035C392.812 19.543 393.635 16.8805 394.239 13.9161C394.898 10.9518 395.227 8.1246 395.227 5.43469C395.227 5.3249 395.227 5.10532 395.227 4.77594C395.227 4.39167 395.2 3.97995 395.145 3.54078C395.145 3.04671 395.117 2.55264 395.062 2.05858C395.062 1.56451 395.035 1.12535 394.98 0.741074H406.92ZM422.402 55.0883C424.653 55.0883 426.245 54.8687 427.178 54.4295C428.111 53.9903 428.578 53.1394 428.578 51.8768C428.578 50.8887 427.974 50.0378 426.766 49.3242C425.559 48.5556 423.72 47.7047 421.249 46.7715C419.328 46.0578 417.571 45.3167 415.979 44.5482C414.442 43.7797 413.125 42.8739 412.027 41.8308C410.929 40.7329 410.078 39.4429 409.474 37.9607C408.87 36.4785 408.568 34.6943 408.568 32.6083C408.568 28.546 410.078 25.3345 413.097 22.974C416.116 20.6135 420.261 19.4332 425.531 19.4332C428.166 19.4332 430.691 19.6802 433.107 20.1743C435.522 20.6135 437.444 21.1075 438.871 21.6565L436.73 31.2084C435.303 30.7144 433.738 30.2752 432.036 29.8909C430.389 29.5067 428.523 29.3145 426.437 29.3145C422.594 29.3145 420.673 30.385 420.673 32.5259C420.673 33.02 420.755 33.4592 420.92 33.8434C421.085 34.2277 421.414 34.612 421.908 34.9963C422.402 35.3256 423.061 35.7099 423.884 36.1491C424.763 36.5334 425.861 36.9725 427.178 37.4666C429.868 38.4547 432.091 39.4429 433.848 40.431C435.605 41.3642 436.977 42.4072 437.965 43.5601C439.008 44.658 439.722 45.8932 440.106 47.2656C440.545 48.638 440.765 50.2299 440.765 52.0415C440.765 56.3234 439.145 59.5623 435.906 61.7581C432.723 63.954 428.194 65.0519 422.32 65.0519C418.477 65.0519 415.266 64.7225 412.685 64.0638C410.16 63.405 408.404 62.8561 407.415 62.4169L409.474 52.4532C411.56 53.2767 413.701 53.9354 415.897 54.4295C418.093 54.8687 420.261 55.0883 422.402 55.0883ZM497.466 41.9132C497.466 34.0081 494.556 30.0556 488.737 30.0556C487.475 30.0556 486.212 30.2203 484.95 30.5497C483.742 30.8791 482.754 31.2908 481.985 31.7848V54.1001C482.589 54.2099 483.358 54.3197 484.291 54.4295C485.224 54.4844 486.24 54.5118 487.338 54.5118C490.686 54.5118 493.211 53.359 494.913 51.0534C496.615 48.7478 497.466 45.701 497.466 41.9132ZM509.982 42.2426C509.982 45.701 509.461 48.8301 508.418 51.6298C507.43 54.4295 505.975 56.8175 504.053 58.7937C502.132 60.77 499.772 62.3071 496.972 63.405C494.172 64.448 490.988 64.9696 487.42 64.9696C485.938 64.9696 484.373 64.8872 482.726 64.7225C481.134 64.6127 479.542 64.448 477.95 64.2285C476.413 64.0089 474.931 63.7618 473.504 63.4874C472.076 63.158 470.814 62.8286 469.716 62.4992V1.97624L481.985 -2.42848e-05V21.5742C483.358 20.9703 484.785 20.5037 486.267 20.1743C487.749 19.8449 489.341 19.6802 491.043 19.6802C494.117 19.6802 496.835 20.2292 499.195 21.3271C501.556 22.3702 503.532 23.8798 505.124 25.8561C506.716 27.8323 507.924 30.2203 508.747 33.02C509.57 35.7648 509.982 38.839 509.982 42.2426ZM517.353 42.5719C517.353 38.7292 517.93 35.3805 519.083 32.5259C520.29 29.6164 521.855 27.201 523.776 25.2797C525.698 23.3583 527.893 21.9035 530.364 20.9154C532.889 19.9273 535.469 19.4332 538.104 19.4332C544.252 19.4332 549.111 21.3271 552.679 25.115C556.247 28.8479 558.031 34.365 558.031 41.6661C558.031 42.3798 558.004 43.1758 557.949 44.0541C557.894 44.8776 557.839 45.6187 557.784 46.2774H529.952C530.226 48.8026 531.407 50.8064 533.493 52.2886C535.579 53.7707 538.379 54.5118 541.892 54.5118C544.143 54.5118 546.338 54.3197 548.479 53.9354C550.675 53.4963 552.459 52.9748 553.832 52.3709L555.479 62.3345C554.82 62.6639 553.942 62.9933 552.844 63.3227C551.746 63.6521 550.511 63.9265 549.138 64.1461C547.821 64.4206 546.393 64.6402 544.856 64.8049C543.319 64.9696 541.782 65.0519 540.245 65.0519C536.347 65.0519 532.944 64.4755 530.034 63.3227C527.18 62.1699 524.792 60.6053 522.87 58.6291C521.004 56.5979 519.604 54.2099 518.671 51.4651C517.792 48.7203 517.353 45.7559 517.353 42.5719ZM546.174 37.8783C546.119 36.8353 545.927 35.8197 545.597 34.8316C545.323 33.8434 544.856 32.9651 544.198 32.1966C543.594 31.428 542.798 30.7967 541.81 30.3026C540.876 29.8086 539.696 29.5615 538.269 29.5615C536.896 29.5615 535.716 29.8086 534.728 30.3026C533.74 30.7418 532.916 31.3457 532.258 32.1142C531.599 32.8828 531.077 33.7886 530.693 34.8316C530.364 35.8197 530.117 36.8353 529.952 37.8783H546.174ZM579.934 55.0883C582.184 55.0883 583.776 54.8687 584.71 54.4295C585.643 53.9903 586.109 53.1394 586.109 51.8768C586.109 50.8887 585.506 50.0378 584.298 49.3242C583.09 48.5556 581.251 47.7047 578.781 46.7715C576.859 46.0578 575.103 45.3167 573.511 44.5482C571.974 43.7797 570.656 42.8739 569.558 41.8308C568.46 40.7329 567.609 39.4429 567.006 37.9607C566.402 36.4785 566.1 34.6943 566.1 32.6083C566.1 28.546 567.609 25.3345 570.629 22.974C573.648 20.6135 577.793 19.4332 583.063 19.4332C585.698 19.4332 588.223 19.6802 590.638 20.1743C593.054 20.6135 594.975 21.1075 596.402 21.6565L594.261 31.2084C592.834 30.7144 591.27 30.2752 589.568 29.8909C587.921 29.5067 586.055 29.3145 583.968 29.3145C580.126 29.3145 578.204 30.385 578.204 32.5259C578.204 33.02 578.287 33.4592 578.451 33.8434C578.616 34.2277 578.945 34.612 579.44 34.9963C579.934 35.3256 580.592 35.7099 581.416 36.1491C582.294 36.5334 583.392 36.9725 584.71 37.4666C587.399 38.4547 589.623 39.4429 591.379 40.431C593.136 41.3642 594.509 42.4072 595.497 43.5601C596.54 44.658 597.253 45.8932 597.638 47.2656C598.077 48.638 598.296 50.2299 598.296 52.0415C598.296 56.3234 596.677 59.5623 593.438 61.7581C590.254 63.954 585.725 65.0519 579.851 65.0519C576.009 65.0519 572.797 64.7225 570.217 64.0638C567.692 63.405 565.935 62.8561 564.947 62.4169L567.006 52.4532C569.092 53.2767 571.233 53.9354 573.428 54.4295C575.624 54.8687 577.793 55.0883 579.934 55.0883ZM607.054 9.79894L619.323 7.82267V20.586H634.063V30.7967H619.323V46.0304C619.323 48.6105 619.762 50.6691 620.641 52.2062C621.574 53.7433 623.413 54.5118 626.158 54.5118C627.475 54.5118 628.82 54.4021 630.193 54.1825C631.62 53.908 632.91 53.5512 634.063 53.112L635.792 62.6639C634.31 63.2678 632.663 63.7893 630.851 64.2285C629.04 64.6676 626.816 64.8872 624.181 64.8872C620.833 64.8872 618.06 64.448 615.865 63.5697C613.669 62.6365 611.912 61.3739 610.595 59.7819C609.277 58.135 608.344 56.1587 607.795 53.8531C607.301 51.5475 607.054 48.9948 607.054 46.1951V9.79894ZM691.586 42.5719C691.586 38.7841 690.735 35.7648 689.033 33.5141C687.331 31.2084 684.806 30.0556 681.458 30.0556C680.36 30.0556 679.344 30.1105 678.411 30.2203C677.478 30.2752 676.709 30.3575 676.105 30.4673V52.6179C676.874 53.112 677.862 53.5237 679.07 53.8531C680.332 54.1825 681.595 54.3472 682.857 54.3472C688.676 54.3472 691.586 50.4221 691.586 42.5719ZM704.102 42.2426C704.102 45.5912 703.691 48.638 702.867 51.3828C702.044 54.1276 700.836 56.4881 699.244 58.4644C697.652 60.4406 695.676 61.9777 693.315 63.0756C690.955 64.1736 688.237 64.7225 685.163 64.7225C683.461 64.7225 681.869 64.5578 680.387 64.2285C678.905 63.8991 677.478 63.4325 676.105 62.8286V79.1328H663.836V22.0682C664.934 21.7388 666.196 21.4369 667.624 21.1624C669.051 20.8331 670.533 20.5586 672.07 20.339C673.662 20.1194 675.254 19.9547 676.846 19.8449C678.493 19.6802 680.058 19.5979 681.54 19.5979C685.108 19.5979 688.292 20.1469 691.092 21.2448C693.892 22.2878 696.252 23.7975 698.173 25.7737C700.095 27.6951 701.55 30.0556 702.538 32.8553C703.581 35.655 704.102 38.7841 704.102 42.2426ZM730.824 64.7225C727.256 64.6676 724.346 64.2834 722.096 63.5697C719.9 62.8561 718.143 61.8679 716.826 60.6053C715.563 59.2878 714.685 57.7233 714.191 55.9117C713.751 54.0452 713.532 51.9592 713.532 49.6535V1.97624L725.801 -2.42848e-05V47.1832C725.801 48.2811 725.884 49.2693 726.048 50.1476C726.213 51.0259 726.515 51.767 726.954 52.3709C727.448 52.9748 728.134 53.4688 729.013 53.8531C729.891 54.2374 731.071 54.4844 732.553 54.5942L730.824 64.7225ZM757.344 55.3353C758.551 55.3353 759.704 55.3078 760.802 55.2529C761.9 55.198 762.778 55.1157 763.437 55.0059V45.701C762.943 45.5912 762.202 45.4814 761.214 45.3716C760.226 45.2618 759.32 45.2069 758.496 45.2069C757.344 45.2069 756.246 45.2893 755.203 45.454C754.214 45.5638 753.336 45.8108 752.568 46.1951C751.799 46.5794 751.195 47.1009 750.756 47.7596C750.317 48.4184 750.097 49.2418 750.097 50.2299C750.097 52.1513 750.729 53.4963 751.991 54.2648C753.309 54.9785 755.093 55.3353 757.344 55.3353ZM756.355 19.4332C759.979 19.4332 762.998 19.8449 765.413 20.6684C767.829 21.4918 769.75 22.6721 771.177 24.2092C772.66 25.7463 773.703 27.6127 774.306 29.8086C774.91 32.0044 775.212 34.4473 775.212 37.1372V62.6639C773.456 63.0482 771.013 63.4874 767.884 63.9814C764.755 64.5304 760.967 64.8049 756.52 64.8049C753.72 64.8049 751.168 64.5578 748.862 64.0638C746.611 63.5697 744.663 62.7737 743.016 61.6758C741.369 60.523 740.106 59.0408 739.228 57.2292C738.35 55.4176 737.91 53.1943 737.91 50.5593C737.91 48.0341 738.404 45.8932 739.393 44.1365C740.436 42.3798 741.808 40.9799 743.51 39.9369C745.212 38.8939 747.16 38.1528 749.356 37.7136C751.552 37.2196 753.83 36.9725 756.191 36.9725C757.783 36.9725 759.183 37.0549 760.39 37.2196C761.653 37.3294 762.669 37.494 763.437 37.7136V36.5608C763.437 34.4748 762.806 32.8004 761.543 31.5378C760.281 30.2752 758.085 29.6439 754.956 29.6439C752.87 29.6439 750.811 29.8086 748.78 30.138C746.749 30.4124 744.992 30.8242 743.51 31.3731L741.945 21.4918C742.659 21.2722 743.537 21.0526 744.58 20.8331C745.678 20.5586 746.858 20.339 748.121 20.1743C749.384 19.9547 750.701 19.79 752.074 19.6802C753.501 19.5156 754.928 19.4332 756.355 19.4332ZM784.248 42.2426C784.248 39.1135 784.742 36.1765 785.73 33.4317C786.773 30.632 788.256 28.2166 790.177 26.1854C792.098 24.0994 794.431 22.4525 797.176 21.2448C799.921 20.0371 803.05 19.4332 806.564 19.4332C808.869 19.4332 810.983 19.6528 812.904 20.092C814.825 20.4762 816.692 21.0526 818.503 21.8212L815.951 31.6202C814.798 31.181 813.535 30.7967 812.163 30.4673C810.791 30.138 809.253 29.9733 807.552 29.9733C803.928 29.9733 801.211 31.0986 799.4 33.3494C797.643 35.6001 796.765 38.5645 796.765 42.2426C796.765 46.1402 797.588 49.1595 799.235 51.3004C800.937 53.4414 803.874 54.5118 808.046 54.5118C809.528 54.5118 811.12 54.3746 812.822 54.1001C814.523 53.8256 816.088 53.3865 817.515 52.7826L819.245 62.8286C817.817 63.4325 816.033 63.954 813.892 64.3932C811.751 64.8323 809.391 65.0519 806.811 65.0519C802.858 65.0519 799.454 64.4755 796.6 63.3227C793.745 62.115 791.385 60.4955 789.518 58.4644C787.707 56.4332 786.362 54.0452 785.483 51.3004C784.66 48.5007 784.248 45.4814 784.248 42.2426ZM823.33 42.5719C823.33 38.7292 823.906 35.3805 825.059 32.5259C826.266 29.6164 827.831 27.201 829.752 25.2797C831.674 23.3583 833.87 21.9035 836.34 20.9154C838.865 19.9273 841.445 19.4332 844.08 19.4332C850.229 19.4332 855.087 21.3271 858.655 25.115C862.223 28.8479 864.008 34.365 864.008 41.6661C864.008 42.3798 863.98 43.1758 863.925 44.0541C863.87 44.8776 863.815 45.6187 863.761 46.2774H835.928C836.203 48.8026 837.383 50.8064 839.469 52.2886C841.555 53.7707 844.355 54.5118 847.868 54.5118C850.119 54.5118 852.315 54.3197 854.456 53.9354C856.652 53.4963 858.436 52.9748 859.808 52.3709L861.455 62.3345C860.796 62.6639 859.918 62.9933 858.82 63.3227C857.722 63.6521 856.487 63.9265 855.114 64.1461C853.797 64.4206 852.37 64.6402 850.833 64.8049C849.295 64.9696 847.758 65.0519 846.221 65.0519C842.324 65.0519 838.92 64.4755 836.011 63.3227C833.156 62.1699 830.768 60.6053 828.847 58.6291C826.98 56.5979 825.58 54.2099 824.647 51.4651C823.769 48.7203 823.33 45.7559 823.33 42.5719ZM852.15 37.8783C852.095 36.8353 851.903 35.8197 851.574 34.8316C851.299 33.8434 850.833 32.9651 850.174 32.1966C849.57 31.428 848.774 30.7967 847.786 30.3026C846.853 29.8086 845.672 29.5615 844.245 29.5615C842.873 29.5615 841.692 29.8086 840.704 30.3026C839.716 30.7418 838.893 31.3457 838.234 32.1142C837.575 32.8828 837.054 33.7886 836.669 34.8316C836.34 35.8197 836.093 36.8353 835.928 37.8783H852.15ZM892.846 9.79894L905.115 7.82267V20.586H919.855V30.7967H905.115V46.0304C905.115 48.6105 905.555 50.6691 906.433 52.2062C907.366 53.7433 909.205 54.5118 911.95 54.5118C913.267 54.5118 914.612 54.4021 915.985 54.1825C917.412 53.908 918.702 53.5512 919.855 53.112L921.584 62.6639C920.102 63.2678 918.455 63.7893 916.644 64.2285C914.832 64.6676 912.609 64.8872 909.974 64.8872C906.625 64.8872 903.853 64.448 901.657 63.5697C899.461 62.6365 897.704 61.3739 896.387 59.7819C895.069 58.135 894.136 56.1587 893.587 53.8531C893.093 51.5475 892.846 48.9948 892.846 46.1951V9.79894ZM968.751 42.1602C968.751 45.5638 968.257 48.6929 967.269 51.5475C966.281 54.3472 964.854 56.7626 962.987 58.7937C961.121 60.77 958.87 62.3071 956.235 63.405C953.655 64.5029 950.745 65.0519 947.507 65.0519C944.323 65.0519 941.413 64.5029 938.778 63.405C936.198 62.3071 933.975 60.77 932.108 58.7937C930.242 56.7626 928.787 54.3472 927.744 51.5475C926.701 48.6929 926.179 45.5638 926.179 42.1602C926.179 38.7567 926.701 35.655 927.744 32.8553C928.842 30.0556 930.324 27.6676 932.191 25.6914C934.112 23.7151 936.363 22.178 938.943 21.0801C941.578 19.9822 944.432 19.4332 947.507 19.4332C950.636 19.4332 953.49 19.9822 956.07 21.0801C958.705 22.178 960.956 23.7151 962.823 25.6914C964.689 27.6676 966.144 30.0556 967.187 32.8553C968.23 35.655 968.751 38.7567 968.751 42.1602ZM956.235 42.1602C956.235 38.3724 955.467 35.408 953.929 33.267C952.447 31.0712 950.306 29.9733 947.507 29.9733C944.707 29.9733 942.538 31.0712 941.001 33.267C939.464 35.408 938.696 38.3724 938.696 42.1602C938.696 45.948 939.464 48.9673 941.001 51.2181C942.538 53.4139 944.707 54.5118 947.507 54.5118C950.306 54.5118 952.447 53.4139 953.929 51.2181C955.467 48.9673 956.235 45.948 956.235 42.1602ZM1016.81 -2.42848e-05C1019.12 -2.42848e-05 1021.01 0.192111 1022.49 0.576383C1024.03 0.960657 1025.32 1.37238 1026.36 1.81155L1024.22 11.4458C1023.34 11.0615 1022.36 10.7871 1021.26 10.6224C1020.22 10.4577 1019.15 10.3753 1018.05 10.3753C1016.57 10.3753 1015.3 10.5949 1014.26 11.0341C1013.27 11.4184 1012.48 11.9673 1011.87 12.681C1011.32 13.3946 1010.91 14.2455 1010.64 15.2337C1010.42 16.2218 1010.31 17.2923 1010.31 18.4451V20.586H1025.46V30.7967H1010.31V63.8991H998.038V18.2804C998.038 12.681 999.602 8.2344 1002.73 4.94063C1005.92 1.64686 1010.61 -2.42848e-05 1016.81 -2.42848e-05ZM1044.81 63.8991H1032.54V20.586H1044.81V63.8991ZM1045.96 8.06971C1045.96 10.3205 1045.22 12.1046 1043.74 13.4221C1042.31 14.6847 1040.61 15.316 1038.63 15.316C1036.66 15.316 1034.93 14.6847 1033.45 13.4221C1032.02 12.1046 1031.3 10.3205 1031.3 8.06971C1031.3 5.81897 1032.02 4.06229 1033.45 2.79968C1034.93 1.48217 1036.66 0.823417 1038.63 0.823417C1040.61 0.823417 1042.31 1.48217 1043.74 2.79968C1045.22 4.06229 1045.96 5.81897 1045.96 8.06971ZM1056.34 22.0682C1058.42 21.4644 1061.11 20.9154 1064.41 20.4213C1067.7 19.8724 1071.16 19.5979 1074.78 19.5979C1078.46 19.5979 1081.51 20.092 1083.92 21.0801C1086.39 22.0133 1088.34 23.3583 1089.77 25.115C1091.2 26.8716 1092.21 28.9577 1092.82 31.3731C1093.42 33.7886 1093.72 36.4785 1093.72 39.4429V63.8991H1081.45V40.9251C1081.45 36.9725 1080.93 34.1728 1079.89 32.5259C1078.85 30.8791 1076.9 30.0556 1074.04 30.0556C1073.16 30.0556 1072.23 30.1105 1071.24 30.2203C1070.25 30.2752 1069.38 30.3575 1068.61 30.4673V63.8991H1056.34V22.0682ZM1115.29 41.9132C1115.29 45.701 1116.14 48.7478 1117.84 51.0534C1119.54 53.359 1122.07 54.5118 1125.41 54.5118C1126.51 54.5118 1127.53 54.4844 1128.46 54.4295C1129.39 54.3197 1130.16 54.2099 1130.77 54.1001V31.7848C1130 31.2908 1128.98 30.8791 1127.72 30.5497C1126.51 30.2203 1125.28 30.0556 1124.01 30.0556C1118.2 30.0556 1115.29 34.0081 1115.29 41.9132ZM1143.04 62.4992C1141.94 62.8286 1140.68 63.158 1139.25 63.4874C1137.82 63.7618 1136.31 64.0089 1134.72 64.2285C1133.18 64.448 1131.59 64.6127 1129.94 64.7225C1128.35 64.8872 1126.81 64.9696 1125.33 64.9696C1121.76 64.9696 1118.58 64.448 1115.78 63.405C1112.98 62.362 1110.62 60.8798 1108.7 58.9584C1106.78 56.9822 1105.29 54.6216 1104.25 51.8768C1103.26 49.0771 1102.77 45.948 1102.77 42.4896C1102.77 38.9762 1103.21 35.8197 1104.09 33.02C1104.97 30.1654 1106.23 27.75 1107.87 25.7737C1109.52 23.7975 1111.53 22.2878 1113.89 21.2448C1116.3 20.2018 1119.05 19.6802 1122.12 19.6802C1123.82 19.6802 1125.33 19.8449 1126.65 20.1743C1128.02 20.5037 1129.39 20.9703 1130.77 21.5742V1.97624L1143.04 -2.42848e-05V62.4992Z" fill="white"/>
<path d="M88.7735 125.76C90.0935 125.76 91.1736 125.66 92.0136 125.46C92.8936 125.22 93.5936 124.92 94.1136 124.56C94.6336 124.16 94.9936 123.7 95.1936 123.18C95.3936 122.66 95.4936 122.08 95.4936 121.44C95.4936 120.08 94.8536 118.96 93.5736 118.08C92.2936 117.16 90.0935 116.18 86.9735 115.14C85.6135 114.66 84.2535 114.12 82.8935 113.52C81.5335 112.88 80.3134 112.1 79.2334 111.18C78.1534 110.22 77.2734 109.08 76.5934 107.76C75.9134 106.4 75.5734 104.76 75.5734 102.839C75.5734 100.919 75.9334 99.1994 76.6534 97.6794C77.3734 96.1194 78.3934 94.7994 79.7134 93.7194C81.0335 92.6394 82.6335 91.8194 84.5135 91.2594C86.3935 90.6594 88.5135 90.3594 90.8736 90.3594C93.6736 90.3594 96.0936 90.6594 98.1336 91.2594C100.174 91.8594 101.854 92.5194 103.174 93.2394L100.474 100.619C99.3136 100.019 98.0136 99.4994 96.5736 99.0594C95.1736 98.5794 93.4736 98.3394 91.4736 98.3394C89.2335 98.3394 87.6135 98.6594 86.6135 99.2994C85.6535 99.8995 85.1735 100.839 85.1735 102.119C85.1735 102.879 85.3535 103.519 85.7135 104.039C86.0735 104.559 86.5735 105.04 87.2135 105.48C87.8935 105.88 88.6535 106.26 89.4935 106.62C90.3735 106.94 91.3336 107.28 92.3736 107.64C94.5336 108.44 96.4136 109.24 98.0136 110.04C99.6136 110.8 100.934 111.7 101.974 112.74C103.054 113.78 103.854 115 104.374 116.4C104.894 117.8 105.154 119.5 105.154 121.5C105.154 125.38 103.794 128.4 101.074 130.56C98.3536 132.68 94.2536 133.74 88.7735 133.74C86.9335 133.74 85.2735 133.62 83.7935 133.38C82.3135 133.18 80.9935 132.92 79.8334 132.6C78.7134 132.28 77.7334 131.94 76.8934 131.58C76.0934 131.22 75.4134 130.88 74.8534 130.56L77.4934 123.12C78.7334 123.8 80.2534 124.42 82.0535 124.98C83.8935 125.5 86.1335 125.76 88.7735 125.76ZM141.276 117.06C141.276 119.54 140.916 121.82 140.196 123.9C139.476 125.94 138.436 127.7 137.076 129.18C135.716 130.62 134.076 131.74 132.156 132.54C130.276 133.34 128.156 133.74 125.796 133.74C123.476 133.74 121.356 133.34 119.436 132.54C117.556 131.74 115.936 130.62 114.576 129.18C113.216 127.7 112.156 125.94 111.396 123.9C110.636 121.82 110.256 119.54 110.256 117.06C110.256 114.58 110.636 112.32 111.396 110.28C112.196 108.24 113.276 106.5 114.636 105.06C116.036 103.619 117.676 102.499 119.556 101.699C121.476 100.899 123.556 100.499 125.796 100.499C128.076 100.499 130.156 100.899 132.036 101.699C133.956 102.499 135.596 103.619 136.956 105.06C138.316 106.5 139.376 108.24 140.136 110.28C140.896 112.32 141.276 114.58 141.276 117.06ZM132.156 117.06C132.156 114.3 131.596 112.14 130.476 110.58C129.396 108.98 127.836 108.18 125.796 108.18C123.756 108.18 122.176 108.98 121.056 110.58C119.936 112.14 119.376 114.3 119.376 117.06C119.376 119.82 119.936 122.02 121.056 123.66C122.176 125.26 123.756 126.06 125.796 126.06C127.836 126.06 129.396 125.26 130.476 123.66C131.596 122.02 132.156 119.82 132.156 117.06ZM161.881 86.3393C163.561 86.3393 165.101 86.5193 166.502 86.8793C167.902 87.1993 168.982 87.5193 169.742 87.8393L168.002 94.9794C167.202 94.6194 166.322 94.3594 165.361 94.1994C164.441 93.9994 163.581 93.8994 162.781 93.8994C161.701 93.8994 160.781 94.0594 160.021 94.3794C159.301 94.6594 158.721 95.0594 158.281 95.5794C157.881 96.0994 157.581 96.7194 157.381 97.4394C157.221 98.1594 157.141 98.9394 157.141 99.7794V101.339H168.182V108.78H157.141V132.9H148.201V99.6595C148.201 95.5794 149.341 92.3394 151.621 89.9394C153.941 87.5393 157.361 86.3393 161.881 86.3393ZM173.214 93.4794L182.154 92.0394V101.339H192.894V108.78H182.154V119.88C182.154 121.76 182.474 123.26 183.114 124.38C183.794 125.5 185.134 126.06 187.134 126.06C188.094 126.06 189.074 125.98 190.074 125.82C191.114 125.62 192.054 125.36 192.894 125.04L194.154 132C193.074 132.44 191.874 132.82 190.554 133.14C189.234 133.46 187.614 133.62 185.694 133.62C183.254 133.62 181.234 133.3 179.634 132.66C178.034 131.98 176.754 131.06 175.794 129.9C174.834 128.7 174.154 127.26 173.754 125.58C173.394 123.9 173.214 122.04 173.214 120V93.4794ZM219.961 114.78C219.161 117.82 218.301 120.84 217.381 123.84C216.501 126.84 215.561 129.86 214.561 132.9H207.601C206.881 131.22 206.101 129.22 205.26 126.9C204.42 124.58 203.54 122.06 202.62 119.34C201.74 116.58 200.82 113.68 199.86 110.64C198.94 107.56 198.04 104.459 197.16 101.339H206.581C206.901 102.779 207.241 104.359 207.601 106.08C208.001 107.76 208.401 109.5 208.801 111.3C209.241 113.1 209.681 114.92 210.121 116.76C210.601 118.56 211.081 120.3 211.561 121.98C212.081 120.22 212.581 118.42 213.061 116.58C213.581 114.74 214.061 112.94 214.501 111.18C214.981 109.38 215.421 107.66 215.821 106.02C216.261 104.339 216.641 102.779 216.961 101.339H223.441C223.761 102.779 224.121 104.339 224.521 106.02C224.921 107.66 225.341 109.38 225.781 111.18C226.221 112.94 226.681 114.74 227.161 116.58C227.641 118.42 228.141 120.22 228.661 121.98C229.141 120.3 229.621 118.56 230.101 116.76C230.581 114.92 231.021 113.1 231.421 111.3C231.861 109.5 232.261 107.76 232.621 106.08C233.021 104.359 233.381 102.779 233.701 101.339H243.001C242.121 104.459 241.201 107.56 240.241 110.64C239.321 113.68 238.401 116.58 237.481 119.34C236.601 122.06 235.721 124.58 234.841 126.9C234.001 129.22 233.221 131.22 232.501 132.9H225.541C224.541 129.86 223.561 126.84 222.601 123.84C221.641 120.84 220.761 117.82 219.961 114.78ZM259.286 126.66C260.166 126.66 261.006 126.64 261.806 126.6C262.606 126.56 263.246 126.5 263.726 126.42V119.64C263.366 119.56 262.826 119.48 262.106 119.4C261.386 119.32 260.726 119.28 260.126 119.28C259.286 119.28 258.486 119.34 257.726 119.46C257.006 119.54 256.366 119.72 255.806 120C255.246 120.28 254.806 120.66 254.486 121.14C254.166 121.62 254.006 122.22 254.006 122.94C254.006 124.34 254.466 125.32 255.386 125.88C256.346 126.4 257.646 126.66 259.286 126.66ZM258.566 100.499C261.206 100.499 263.406 100.799 265.166 101.399C266.926 101.999 268.326 102.859 269.366 103.979C270.446 105.1 271.206 106.46 271.646 108.06C272.086 109.66 272.306 111.44 272.306 113.4V132C271.026 132.28 269.246 132.6 266.966 132.96C264.686 133.36 261.926 133.56 258.686 133.56C256.646 133.56 254.786 133.38 253.106 133.02C251.466 132.66 250.046 132.08 248.846 131.28C247.646 130.44 246.726 129.36 246.086 128.04C245.446 126.72 245.126 125.1 245.126 123.18C245.126 121.34 245.486 119.78 246.206 118.5C246.966 117.22 247.966 116.2 249.206 115.44C250.446 114.68 251.866 114.14 253.466 113.82C255.066 113.46 256.726 113.28 258.446 113.28C259.606 113.28 260.626 113.34 261.506 113.46C262.426 113.54 263.166 113.66 263.726 113.82V112.98C263.726 111.46 263.266 110.24 262.346 109.32C261.426 108.4 259.826 107.94 257.546 107.94C256.026 107.94 254.526 108.06 253.046 108.3C251.566 108.5 250.286 108.8 249.206 109.2L248.066 101.999C248.586 101.839 249.226 101.679 249.986 101.519C250.786 101.319 251.646 101.159 252.566 101.039C253.486 100.879 254.446 100.759 255.446 100.679C256.486 100.559 257.526 100.499 258.566 100.499ZM299.41 109.26C298.61 109.06 297.67 108.86 296.59 108.66C295.51 108.42 294.35 108.3 293.11 108.3C292.55 108.3 291.87 108.36 291.07 108.48C290.31 108.56 289.73 108.66 289.33 108.78V132.9H280.39V103.019C281.99 102.459 283.87 101.939 286.03 101.459C288.23 100.939 290.67 100.679 293.35 100.679C293.83 100.679 294.41 100.719 295.09 100.799C295.77 100.839 296.45 100.919 297.13 101.039C297.81 101.119 298.49 101.239 299.17 101.399C299.85 101.519 300.43 101.679 300.91 101.879L299.41 109.26ZM303.617 117.36C303.617 114.56 304.037 112.12 304.877 110.04C305.757 107.92 306.897 106.16 308.297 104.76C309.697 103.359 311.297 102.299 313.097 101.579C314.937 100.859 316.817 100.499 318.737 100.499C323.217 100.499 326.757 101.879 329.357 104.64C331.957 107.36 333.257 111.38 333.257 116.7C333.257 117.22 333.237 117.8 333.197 118.44C333.157 119.04 333.117 119.58 333.077 120.06H312.797C312.997 121.9 313.857 123.36 315.377 124.44C316.897 125.52 318.937 126.06 321.497 126.06C323.137 126.06 324.737 125.92 326.297 125.64C327.897 125.32 329.197 124.94 330.197 124.5L331.397 131.76C330.917 132 330.277 132.24 329.477 132.48C328.677 132.72 327.777 132.92 326.777 133.08C325.817 133.28 324.777 133.44 323.657 133.56C322.537 133.68 321.417 133.74 320.297 133.74C317.457 133.74 314.977 133.32 312.857 132.48C310.777 131.64 309.037 130.5 307.637 129.06C306.277 127.58 305.257 125.84 304.577 123.84C303.937 121.84 303.617 119.68 303.617 117.36ZM324.617 113.94C324.577 113.18 324.437 112.44 324.197 111.72C323.997 111 323.657 110.36 323.177 109.8C322.737 109.24 322.157 108.78 321.437 108.42C320.757 108.06 319.897 107.88 318.857 107.88C317.857 107.88 316.997 108.06 316.277 108.42C315.557 108.74 314.957 109.18 314.477 109.74C313.997 110.3 313.617 110.96 313.337 111.72C313.097 112.44 312.917 113.18 312.797 113.94H324.617ZM349.216 126.48C350.857 126.48 352.017 126.32 352.697 126C353.377 125.68 353.717 125.06 353.717 124.14C353.717 123.42 353.277 122.8 352.397 122.28C351.517 121.72 350.177 121.1 348.376 120.42C346.976 119.9 345.696 119.36 344.536 118.8C343.416 118.24 342.456 117.58 341.656 116.82C340.856 116.02 340.236 115.08 339.796 114C339.356 112.92 339.136 111.62 339.136 110.1C339.136 107.14 340.236 104.8 342.436 103.079C344.636 101.359 347.656 100.499 351.497 100.499C353.417 100.499 355.257 100.679 357.017 101.039C358.777 101.359 360.177 101.719 361.217 102.119L359.657 109.08C358.617 108.72 357.477 108.4 356.237 108.12C355.037 107.84 353.677 107.7 352.157 107.7C349.356 107.7 347.956 108.48 347.956 110.04C347.956 110.4 348.016 110.72 348.136 111C348.256 111.28 348.496 111.56 348.856 111.84C349.216 112.08 349.696 112.36 350.297 112.68C350.937 112.96 351.737 113.28 352.697 113.64C354.657 114.36 356.277 115.08 357.557 115.8C358.837 116.48 359.837 117.24 360.557 118.08C361.317 118.88 361.837 119.78 362.117 120.78C362.437 121.78 362.597 122.94 362.597 124.26C362.597 127.38 361.417 129.74 359.057 131.34C356.737 132.94 353.437 133.74 349.156 133.74C346.356 133.74 344.016 133.5 342.136 133.02C340.296 132.54 339.016 132.14 338.296 131.82L339.796 124.56C341.316 125.16 342.876 125.64 344.476 126C346.076 126.32 347.656 126.48 349.216 126.48ZM377.738 123.78C377.818 124.74 377.858 125.42 377.858 125.82C377.898 126.22 377.918 126.56 377.918 126.84C377.918 128.04 377.798 129.32 377.558 130.68C377.358 132 377.058 133.34 376.658 134.7C376.258 136.06 375.758 137.42 375.158 138.78C374.558 140.14 373.878 141.44 373.118 142.68L366.098 140.94C367.018 138.3 367.658 135.82 368.018 133.5C368.378 131.18 368.558 129.26 368.558 127.74C368.558 127.5 368.538 127.2 368.498 126.84C368.498 126.44 368.478 126.04 368.438 125.64C368.438 125.24 368.418 124.86 368.378 124.5C368.378 124.14 368.378 123.9 368.378 123.78H377.738ZM426.898 132.9C426.458 131.46 425.958 129.98 425.398 128.46C424.878 126.94 424.358 125.42 423.838 123.9H407.638C407.118 125.42 406.578 126.94 406.018 128.46C405.498 129.98 405.018 131.46 404.578 132.9H394.858C396.418 128.42 397.898 124.28 399.298 120.48C400.698 116.68 402.058 113.1 403.378 109.74C404.738 106.38 406.058 103.199 407.338 100.199C408.658 97.1594 410.018 94.1994 411.418 91.3194H420.358C421.718 94.1994 423.058 97.1594 424.378 100.199C425.698 103.199 427.018 106.38 428.338 109.74C429.698 113.1 431.078 116.68 432.478 120.48C433.878 124.28 435.358 128.42 436.918 132.9H426.898ZM415.678 100.739C415.478 101.339 415.178 102.159 414.778 103.199C414.378 104.239 413.918 105.44 413.398 106.8C412.878 108.16 412.298 109.66 411.658 111.3C411.058 112.94 410.438 114.66 409.798 116.46H421.618C420.978 114.66 420.358 112.94 419.758 111.3C419.158 109.66 418.578 108.16 418.018 106.8C417.498 105.44 417.038 104.239 416.638 103.199C416.238 102.159 415.918 101.339 415.678 100.739ZM439.556 117.12C439.556 114.84 439.916 112.7 440.636 110.7C441.396 108.66 442.476 106.9 443.876 105.42C445.276 103.899 446.976 102.699 448.976 101.819C450.976 100.939 453.256 100.499 455.816 100.499C457.496 100.499 459.036 100.659 460.436 100.979C461.836 101.259 463.196 101.679 464.516 102.239L462.656 109.38C461.816 109.06 460.896 108.78 459.896 108.54C458.896 108.3 457.776 108.18 456.536 108.18C453.896 108.18 451.916 109 450.596 110.64C449.316 112.28 448.676 114.44 448.676 117.12C448.676 119.96 449.276 122.16 450.476 123.72C451.716 125.28 453.856 126.06 456.896 126.06C457.976 126.06 459.136 125.96 460.376 125.76C461.616 125.56 462.756 125.24 463.796 124.8L465.056 132.12C464.016 132.56 462.716 132.94 461.156 133.26C459.596 133.58 457.876 133.74 455.996 133.74C453.116 133.74 450.636 133.32 448.556 132.48C446.476 131.6 444.756 130.42 443.396 128.94C442.076 127.46 441.096 125.72 440.456 123.72C439.856 121.68 439.556 119.48 439.556 117.12ZM468.033 117.12C468.033 114.84 468.393 112.7 469.113 110.7C469.873 108.66 470.953 106.9 472.353 105.42C473.753 103.899 475.453 102.699 477.453 101.819C479.453 100.939 481.733 100.499 484.293 100.499C485.973 100.499 487.513 100.659 488.913 100.979C490.313 101.259 491.673 101.679 492.993 102.239L491.133 109.38C490.293 109.06 489.373 108.78 488.373 108.54C487.373 108.3 486.253 108.18 485.013 108.18C482.373 108.18 480.393 109 479.073 110.64C477.793 112.28 477.153 114.44 477.153 117.12C477.153 119.96 477.753 122.16 478.953 123.72C480.193 125.28 482.333 126.06 485.373 126.06C486.453 126.06 487.613 125.96 488.853 125.76C490.093 125.56 491.233 125.24 492.273 124.8L493.533 132.12C492.493 132.56 491.193 132.94 489.633 133.26C488.073 133.58 486.353 133.74 484.473 133.74C481.593 133.74 479.113 133.32 477.033 132.48C474.953 131.6 473.233 130.42 471.873 128.94C470.553 127.46 469.573 125.72 468.933 123.72C468.333 121.68 468.033 119.48 468.033 117.12ZM496.51 117.36C496.51 114.56 496.93 112.12 497.77 110.04C498.65 107.92 499.79 106.16 501.19 104.76C502.59 103.359 504.19 102.299 505.99 101.579C507.83 100.859 509.71 100.499 511.63 100.499C516.11 100.499 519.65 101.879 522.25 104.64C524.85 107.36 526.15 111.38 526.15 116.7C526.15 117.22 526.13 117.8 526.09 118.44C526.05 119.04 526.01 119.58 525.97 120.06H505.69C505.89 121.9 506.75 123.36 508.27 124.44C509.79 125.52 511.83 126.06 514.39 126.06C516.03 126.06 517.63 125.92 519.19 125.64C520.79 125.32 522.09 124.94 523.09 124.5L524.29 131.76C523.81 132 523.17 132.24 522.37 132.48C521.57 132.72 520.67 132.92 519.67 133.08C518.71 133.28 517.67 133.44 516.55 133.56C515.43 133.68 514.31 133.74 513.19 133.74C510.35 133.74 507.87 133.32 505.75 132.48C503.67 131.64 501.93 130.5 500.53 129.06C499.17 127.58 498.15 125.84 497.47 123.84C496.83 121.84 496.51 119.68 496.51 117.36ZM517.51 113.94C517.47 113.18 517.33 112.44 517.09 111.72C516.89 111 516.55 110.36 516.07 109.8C515.63 109.24 515.05 108.78 514.33 108.42C513.65 108.06 512.79 107.88 511.75 107.88C510.75 107.88 509.89 108.06 509.17 108.42C508.45 108.74 507.85 109.18 507.37 109.74C506.89 110.3 506.51 110.96 506.23 111.72C505.99 112.44 505.81 113.18 505.69 113.94H517.51ZM545.649 133.5C543.049 133.46 540.929 133.18 539.289 132.66C537.689 132.14 536.409 131.42 535.449 130.5C534.529 129.54 533.889 128.4 533.529 127.08C533.209 125.72 533.049 124.2 533.049 122.52V87.7793L541.989 86.3393V120.72C541.989 121.52 542.049 122.24 542.169 122.88C542.289 123.52 542.509 124.06 542.829 124.5C543.189 124.94 543.689 125.3 544.329 125.58C544.969 125.86 545.829 126.04 546.909 126.12L545.649 133.5ZM550.534 117.36C550.534 114.56 550.954 112.12 551.794 110.04C552.674 107.92 553.814 106.16 555.214 104.76C556.614 103.359 558.214 102.299 560.014 101.579C561.854 100.859 563.734 100.499 565.654 100.499C570.134 100.499 573.674 101.879 576.274 104.64C578.874 107.36 580.174 111.38 580.174 116.7C580.174 117.22 580.154 117.8 580.114 118.44C580.074 119.04 580.034 119.58 579.994 120.06H559.714C559.914 121.9 560.774 123.36 562.294 124.44C563.814 125.52 565.854 126.06 568.414 126.06C570.054 126.06 571.654 125.92 573.214 125.64C574.814 125.32 576.114 124.94 577.114 124.5L578.314 131.76C577.834 132 577.194 132.24 576.394 132.48C575.594 132.72 574.694 132.92 573.694 133.08C572.734 133.28 571.694 133.44 570.574 133.56C569.454 133.68 568.334 133.74 567.214 133.74C564.374 133.74 561.894 133.32 559.774 132.48C557.694 131.64 555.954 130.5 554.554 129.06C553.194 127.58 552.174 125.84 551.494 123.84C550.854 121.84 550.534 119.68 550.534 117.36ZM571.534 113.94C571.494 113.18 571.354 112.44 571.114 111.72C570.914 111 570.574 110.36 570.094 109.8C569.654 109.24 569.074 108.78 568.354 108.42C567.674 108.06 566.814 107.88 565.774 107.88C564.774 107.88 563.914 108.06 563.194 108.42C562.474 108.74 561.874 109.18 561.394 109.74C560.914 110.3 560.534 110.96 560.254 111.72C560.014 112.44 559.834 113.18 559.714 113.94H571.534ZM606.093 109.26C605.293 109.06 604.353 108.86 603.273 108.66C602.193 108.42 601.033 108.3 599.793 108.3C599.233 108.3 598.553 108.36 597.753 108.48C596.993 108.56 596.413 108.66 596.013 108.78V132.9H587.073V103.019C588.673 102.459 590.553 101.939 592.713 101.459C594.913 100.939 597.353 100.679 600.033 100.679C600.513 100.679 601.093 100.719 601.773 100.799C602.453 100.839 603.133 100.919 603.813 101.039C604.493 101.119 605.173 101.239 605.853 101.399C606.533 101.519 607.113 101.679 607.593 101.879L606.093 109.26ZM623.86 126.66C624.74 126.66 625.58 126.64 626.38 126.6C627.18 126.56 627.82 126.5 628.3 126.42V119.64C627.94 119.56 627.4 119.48 626.68 119.4C625.96 119.32 625.3 119.28 624.7 119.28C623.86 119.28 623.06 119.34 622.3 119.46C621.58 119.54 620.94 119.72 620.38 120C619.82 120.28 619.38 120.66 619.06 121.14C618.74 121.62 618.58 122.22 618.58 122.94C618.58 124.34 619.04 125.32 619.96 125.88C620.92 126.4 622.22 126.66 623.86 126.66ZM623.14 100.499C625.78 100.499 627.98 100.799 629.74 101.399C631.5 101.999 632.9 102.859 633.94 103.979C635.02 105.1 635.78 106.46 636.22 108.06C636.66 109.66 636.88 111.44 636.88 113.4V132C635.6 132.28 633.82 132.6 631.54 132.96C629.26 133.36 626.5 133.56 623.26 133.56C621.22 133.56 619.36 133.38 617.68 133.02C616.04 132.66 614.62 132.08 613.42 131.28C612.22 130.44 611.3 129.36 610.66 128.04C610.02 126.72 609.7 125.1 609.7 123.18C609.7 121.34 610.06 119.78 610.78 118.5C611.54 117.22 612.54 116.2 613.78 115.44C615.02 114.68 616.44 114.14 618.04 113.82C619.64 113.46 621.3 113.28 623.02 113.28C624.18 113.28 625.2 113.34 626.08 113.46C627 113.54 627.74 113.66 628.3 113.82V112.98C628.3 111.46 627.84 110.24 626.92 109.32C626 108.4 624.4 107.94 622.12 107.94C620.6 107.94 619.1 108.06 617.62 108.3C616.14 108.5 614.86 108.8 613.78 109.2L612.64 101.999C613.16 101.839 613.8 101.679 614.56 101.519C615.36 101.319 616.22 101.159 617.14 101.039C618.06 100.879 619.02 100.759 620.02 100.679C621.06 100.559 622.1 100.499 623.14 100.499ZM644.664 93.4794L653.604 92.0394V101.339H664.344V108.78H653.604V119.88C653.604 121.76 653.924 123.26 654.564 124.38C655.244 125.5 656.584 126.06 658.584 126.06C659.544 126.06 660.524 125.98 661.524 125.82C662.564 125.62 663.504 125.36 664.344 125.04L665.604 132C664.524 132.44 663.324 132.82 662.004 133.14C660.684 133.46 659.064 133.62 657.144 133.62C654.704 133.62 652.684 133.3 651.084 132.66C649.484 131.98 648.204 131.06 647.244 129.9C646.284 128.7 645.604 127.26 645.204 125.58C644.844 123.9 644.664 122.04 644.664 120V93.4794ZM699.973 117.06C699.973 119.54 699.613 121.82 698.893 123.9C698.173 125.94 697.133 127.7 695.773 129.18C694.413 130.62 692.773 131.74 690.853 132.54C688.973 133.34 686.853 133.74 684.493 133.74C682.173 133.74 680.053 133.34 678.133 132.54C676.253 131.74 674.633 130.62 673.273 129.18C671.913 127.7 670.853 125.94 670.093 123.9C669.333 121.82 668.953 119.54 668.953 117.06C668.953 114.58 669.333 112.32 670.093 110.28C670.893 108.24 671.973 106.5 673.333 105.06C674.733 103.619 676.373 102.499 678.253 101.699C680.173 100.899 682.253 100.499 684.493 100.499C686.773 100.499 688.853 100.899 690.733 101.699C692.653 102.499 694.293 103.619 695.653 105.06C697.013 106.5 698.073 108.24 698.833 110.28C699.593 112.32 699.973 114.58 699.973 117.06ZM690.853 117.06C690.853 114.3 690.293 112.14 689.173 110.58C688.093 108.98 686.533 108.18 684.493 108.18C682.453 108.18 680.873 108.98 679.753 110.58C678.633 112.14 678.073 114.3 678.073 117.06C678.073 119.82 678.633 122.02 679.753 123.66C680.873 125.26 682.453 126.06 684.493 126.06C686.533 126.06 688.093 125.26 689.173 123.66C690.293 122.02 690.853 119.82 690.853 117.06ZM725.919 109.26C725.119 109.06 724.179 108.86 723.099 108.66C722.019 108.42 720.859 108.3 719.619 108.3C719.059 108.3 718.379 108.36 717.579 108.48C716.819 108.56 716.239 108.66 715.839 108.78V132.9H706.898V103.019C708.498 102.459 710.378 101.939 712.538 101.459C714.738 100.939 717.179 100.679 719.859 100.679C720.339 100.679 720.919 100.719 721.599 100.799C722.279 100.839 722.959 100.919 723.639 101.039C724.319 101.119 724.999 101.239 725.679 101.399C726.359 101.519 726.939 101.679 727.419 101.879L725.919 109.26ZM741.271 126.48C742.911 126.48 744.071 126.32 744.751 126C745.431 125.68 745.771 125.06 745.771 124.14C745.771 123.42 745.331 122.8 744.451 122.28C743.571 121.72 742.231 121.1 740.431 120.42C739.031 119.9 737.751 119.36 736.591 118.8C735.471 118.24 734.511 117.58 733.711 116.82C732.911 116.02 732.291 115.08 731.851 114C731.411 112.92 731.191 111.62 731.191 110.1C731.191 107.14 732.291 104.8 734.491 103.079C736.691 101.359 739.711 100.499 743.551 100.499C745.471 100.499 747.311 100.679 749.071 101.039C750.831 101.359 752.231 101.719 753.271 102.119L751.711 109.08C750.671 108.72 749.531 108.4 748.291 108.12C747.091 107.84 745.731 107.7 744.211 107.7C741.411 107.7 740.011 108.48 740.011 110.04C740.011 110.4 740.071 110.72 740.191 111C740.311 111.28 740.551 111.56 740.911 111.84C741.271 112.08 741.751 112.36 742.351 112.68C742.991 112.96 743.791 113.28 744.751 113.64C746.711 114.36 748.331 115.08 749.611 115.8C750.891 116.48 751.891 117.24 752.611 118.08C753.371 118.88 753.891 119.78 754.171 120.78C754.491 121.78 754.651 122.94 754.651 124.26C754.651 127.38 753.471 129.74 751.111 131.34C748.791 132.94 745.491 133.74 741.211 133.74C738.411 133.74 736.071 133.5 734.191 133.02C732.351 132.54 731.071 132.14 730.351 131.82L731.851 124.56C733.371 125.16 734.931 125.64 736.531 126C738.131 126.32 739.711 126.48 741.271 126.48ZM773.647 121.86C773.647 120.34 773.867 118.96 774.307 117.72C774.747 116.44 775.327 115.3 776.047 114.3C776.807 113.26 777.667 112.36 778.627 111.6C779.627 110.8 780.667 110.1 781.747 109.5C780.787 108.34 779.927 107.1 779.167 105.78C778.407 104.419 778.027 102.939 778.027 101.339C778.027 97.8194 779.087 95.1194 781.207 93.2394C783.327 91.3194 786.247 90.3594 789.967 90.3594C791.847 90.3594 793.487 90.6194 794.887 91.1394C796.287 91.6194 797.447 92.2994 798.367 93.1794C799.327 94.0194 800.047 95.0194 800.527 96.1794C801.007 97.2994 801.247 98.5194 801.247 99.8395C801.247 102.279 800.547 104.459 799.147 106.38C797.787 108.26 796.047 109.84 793.927 111.12L800.647 117.84C801.007 117.04 801.347 116.04 801.667 114.84C802.027 113.6 802.247 112.52 802.327 111.6L809.767 112.56C809.687 113.32 809.547 114.16 809.347 115.08C809.147 115.96 808.887 116.86 808.567 117.78C808.287 118.7 807.947 119.62 807.547 120.54C807.187 121.46 806.787 122.3 806.347 123.06C807.627 124.5 808.867 126.08 810.067 127.8C811.307 129.48 812.367 131.18 813.247 132.9H804.067C803.747 132.38 803.307 131.74 802.747 130.98C802.187 130.18 801.627 129.5 801.067 128.94C799.467 130.22 797.607 131.3 795.487 132.18C793.367 133.02 790.987 133.44 788.347 133.44C785.547 133.44 783.207 133.1 781.327 132.42C779.447 131.7 777.927 130.8 776.767 129.72C775.647 128.6 774.847 127.36 774.367 126C773.887 124.6 773.647 123.22 773.647 121.86ZM781.987 120.96C781.987 121.56 782.107 122.18 782.347 122.82C782.587 123.46 782.967 124.06 783.487 124.62C784.047 125.14 784.747 125.58 785.587 125.94C786.427 126.26 787.447 126.42 788.647 126.42C790.327 126.42 791.787 126.2 793.027 125.76C794.307 125.32 795.367 124.74 796.207 124.02L786.607 114.36C786.047 114.64 785.487 114.98 784.927 115.38C784.407 115.78 783.927 116.26 783.487 116.82C783.047 117.34 782.687 117.94 782.407 118.62C782.127 119.3 781.987 120.08 781.987 120.96ZM793.627 100.259C793.627 99.3394 793.327 98.5194 792.727 97.7994C792.127 97.0794 791.127 96.7194 789.727 96.7194C788.447 96.7194 787.447 97.1194 786.727 97.9194C786.047 98.6794 785.707 99.6795 785.707 100.919C785.707 101.959 786.007 102.979 786.607 103.979C787.207 104.94 787.987 105.86 788.947 106.74C790.227 106.02 791.327 105.16 792.247 104.159C793.167 103.159 793.627 101.859 793.627 100.259ZM844.406 125.76C845.726 125.76 846.806 125.66 847.646 125.46C848.526 125.22 849.226 124.92 849.746 124.56C850.266 124.16 850.626 123.7 850.826 123.18C851.026 122.66 851.126 122.08 851.126 121.44C851.126 120.08 850.486 118.96 849.206 118.08C847.926 117.16 845.726 116.18 842.606 115.14C841.246 114.66 839.886 114.12 838.526 113.52C837.166 112.88 835.946 112.1 834.866 111.18C833.786 110.22 832.906 109.08 832.226 107.76C831.546 106.4 831.206 104.76 831.206 102.839C831.206 100.919 831.566 99.1994 832.286 97.6794C833.006 96.1194 834.026 94.7994 835.346 93.7194C836.666 92.6394 838.266 91.8194 840.146 91.2594C842.026 90.6594 844.146 90.3594 846.506 90.3594C849.306 90.3594 851.726 90.6594 853.766 91.2594C855.806 91.8594 857.486 92.5194 858.806 93.2394L856.106 100.619C854.946 100.019 853.646 99.4994 852.206 99.0594C850.806 98.5794 849.106 98.3394 847.106 98.3394C844.866 98.3394 843.246 98.6594 842.246 99.2994C841.286 99.8995 840.806 100.839 840.806 102.119C840.806 102.879 840.986 103.519 841.346 104.039C841.706 104.559 842.206 105.04 842.846 105.48C843.526 105.88 844.286 106.26 845.126 106.62C846.006 106.94 846.966 107.28 848.006 107.64C850.166 108.44 852.046 109.24 853.646 110.04C855.246 110.8 856.566 111.7 857.606 112.74C858.686 113.78 859.486 115 860.006 116.4C860.526 117.8 860.786 119.5 860.786 121.5C860.786 125.38 859.426 128.4 856.706 130.56C853.986 132.68 849.886 133.74 844.406 133.74C842.566 133.74 840.906 133.62 839.426 133.38C837.946 133.18 836.626 132.92 835.466 132.6C834.346 132.28 833.366 131.94 832.526 131.58C831.726 131.22 831.046 130.88 830.486 130.56L833.126 123.12C834.366 123.8 835.886 124.42 837.686 124.98C839.526 125.5 841.766 125.76 844.406 125.76ZM867.088 93.4794L876.028 92.0394V101.339H886.769V108.78H876.028V119.88C876.028 121.76 876.348 123.26 876.988 124.38C877.668 125.5 879.008 126.06 881.008 126.06C881.968 126.06 882.948 125.98 883.948 125.82C884.989 125.62 885.929 125.36 886.769 125.04L888.029 132C886.949 132.44 885.749 132.82 884.429 133.14C883.108 133.46 881.488 133.62 879.568 133.62C877.128 133.62 875.108 133.3 873.508 132.66C871.908 131.98 870.628 131.06 869.668 129.9C868.708 128.7 868.028 127.26 867.628 125.58C867.268 123.9 867.088 122.04 867.088 120V93.4794ZM904.937 126.66C905.817 126.66 906.657 126.64 907.457 126.6C908.257 126.56 908.897 126.5 909.377 126.42V119.64C909.017 119.56 908.477 119.48 907.757 119.4C907.037 119.32 906.377 119.28 905.777 119.28C904.937 119.28 904.137 119.34 903.377 119.46C902.657 119.54 902.017 119.72 901.457 120C900.897 120.28 900.457 120.66 900.137 121.14C899.817 121.62 899.657 122.22 899.657 122.94C899.657 124.34 900.117 125.32 901.037 125.88C901.997 126.4 903.297 126.66 904.937 126.66ZM904.217 100.499C906.857 100.499 909.057 100.799 910.817 101.399C912.577 101.999 913.977 102.859 915.017 103.979C916.097 105.1 916.857 106.46 917.297 108.06C917.737 109.66 917.957 111.44 917.957 113.4V132C916.677 132.28 914.897 132.6 912.617 132.96C910.337 133.36 907.577 133.56 904.337 133.56C902.297 133.56 900.437 133.38 898.757 133.02C897.117 132.66 895.697 132.08 894.497 131.28C893.297 130.44 892.377 129.36 891.737 128.04C891.097 126.72 890.777 125.1 890.777 123.18C890.777 121.34 891.137 119.78 891.857 118.5C892.617 117.22 893.617 116.2 894.857 115.44C896.097 114.68 897.517 114.14 899.117 113.82C900.717 113.46 902.377 113.28 904.097 113.28C905.257 113.28 906.277 113.34 907.157 113.46C908.077 113.54 908.817 113.66 909.377 113.82V112.98C909.377 111.46 908.917 110.24 907.997 109.32C907.077 108.4 905.477 107.94 903.197 107.94C901.677 107.94 900.177 108.06 898.697 108.3C897.217 108.5 895.937 108.8 894.857 109.2L893.717 101.999C894.237 101.839 894.877 101.679 895.637 101.519C896.437 101.319 897.297 101.159 898.217 101.039C899.137 100.879 900.097 100.759 901.097 100.679C902.137 100.559 903.177 100.499 904.217 100.499ZM945.061 109.26C944.261 109.06 943.321 108.86 942.241 108.66C941.161 108.42 940.001 108.3 938.761 108.3C938.201 108.3 937.521 108.36 936.721 108.48C935.961 108.56 935.381 108.66 934.981 108.78V132.9H926.041V103.019C927.641 102.459 929.521 101.939 931.681 101.459C933.881 100.939 936.321 100.679 939.001 100.679C939.481 100.679 940.061 100.719 940.741 100.799C941.421 100.839 942.101 100.919 942.781 101.039C943.461 101.119 944.141 101.239 944.821 101.399C945.501 101.519 946.081 101.679 946.561 101.879L945.061 109.26ZM951.054 93.4794L959.994 92.0394V101.339H970.734V108.78H959.994V119.88C959.994 121.76 960.314 123.26 960.954 124.38C961.634 125.5 962.974 126.06 964.974 126.06C965.934 126.06 966.914 125.98 967.914 125.82C968.954 125.62 969.894 125.36 970.734 125.04L971.994 132C970.914 132.44 969.714 132.82 968.394 133.14C967.074 133.46 965.454 133.62 963.534 133.62C961.094 133.62 959.074 133.3 957.474 132.66C955.874 131.98 954.594 131.06 953.634 129.9C952.674 128.7 951.994 127.26 951.594 125.58C951.234 123.9 951.054 122.04 951.054 120V93.4794ZM1004.95 131.82C1003.43 132.26 1001.47 132.66 999.075 133.02C996.675 133.42 994.155 133.62 991.515 133.62C988.835 133.62 986.595 133.26 984.795 132.54C983.035 131.82 981.634 130.82 980.594 129.54C979.554 128.22 978.814 126.66 978.374 124.86C977.934 123.06 977.714 121.08 977.714 118.92V101.339H986.655V117.84C986.655 120.72 987.035 122.8 987.795 124.08C988.555 125.36 989.975 126 992.055 126C992.695 126 993.375 125.98 994.095 125.94C994.815 125.86 995.455 125.78 996.015 125.7V101.339H1004.95V131.82ZM1033.57 117.36C1033.57 114.6 1032.95 112.4 1031.71 110.76C1030.47 109.08 1028.63 108.24 1026.19 108.24C1025.39 108.24 1024.65 108.28 1023.97 108.36C1023.29 108.4 1022.73 108.46 1022.29 108.54V124.68C1022.85 125.04 1023.57 125.34 1024.45 125.58C1025.37 125.82 1026.29 125.94 1027.21 125.94C1031.45 125.94 1033.57 123.08 1033.57 117.36ZM1042.69 117.12C1042.69 119.56 1042.39 121.78 1041.79 123.78C1041.19 125.78 1040.31 127.5 1039.15 128.94C1037.99 130.38 1036.55 131.5 1034.83 132.3C1033.11 133.1 1031.13 133.5 1028.89 133.5C1027.65 133.5 1026.49 133.38 1025.41 133.14C1024.33 132.9 1023.29 132.56 1022.29 132.12V144H1013.35V102.419C1014.15 102.179 1015.07 101.959 1016.11 101.759C1017.15 101.519 1018.23 101.319 1019.35 101.159C1020.51 100.999 1021.67 100.879 1022.83 100.799C1024.03 100.679 1025.17 100.619 1026.25 100.619C1028.85 100.619 1031.17 101.019 1033.21 101.819C1035.25 102.579 1036.97 103.679 1038.37 105.12C1039.77 106.52 1040.83 108.24 1041.55 110.28C1042.31 112.32 1042.69 114.6 1042.69 117.12ZM1058.62 126.48C1060.26 126.48 1061.42 126.32 1062.1 126C1062.78 125.68 1063.12 125.06 1063.12 124.14C1063.12 123.42 1062.68 122.8 1061.8 122.28C1060.92 121.72 1059.58 121.1 1057.78 120.42C1056.38 119.9 1055.1 119.36 1053.94 118.8C1052.82 118.24 1051.86 117.58 1051.06 116.82C1050.26 116.02 1049.64 115.08 1049.2 114C1048.76 112.92 1048.54 111.62 1048.54 110.1C1048.54 107.14 1049.64 104.8 1051.84 103.079C1054.04 101.359 1057.06 100.499 1060.9 100.499C1062.82 100.499 1064.66 100.679 1066.42 101.039C1068.18 101.359 1069.58 101.719 1070.62 102.119L1069.06 109.08C1068.02 108.72 1066.88 108.4 1065.64 108.12C1064.44 107.84 1063.08 107.7 1061.56 107.7C1058.76 107.7 1057.36 108.48 1057.36 110.04C1057.36 110.4 1057.42 110.72 1057.54 111C1057.66 111.28 1057.9 111.56 1058.26 111.84C1058.62 112.08 1059.1 112.36 1059.7 112.68C1060.34 112.96 1061.14 113.28 1062.1 113.64C1064.06 114.36 1065.68 115.08 1066.96 115.8C1068.24 116.48 1069.24 117.24 1069.96 118.08C1070.72 118.88 1071.24 119.78 1071.52 120.78C1071.84 121.78 1072 122.94 1072 124.26C1072 127.38 1070.82 129.74 1068.46 131.34C1066.14 132.94 1062.84 133.74 1058.56 133.74C1055.76 133.74 1053.42 133.5 1051.54 133.02C1049.7 132.54 1048.42 132.14 1047.7 131.82L1049.2 124.56C1050.72 125.16 1052.28 125.64 1053.88 126C1055.48 126.32 1057.06 126.48 1058.62 126.48Z" fill="url(#paint0_linear_2006_10)"/>
<defs>
<linearGradient id="paint0_linear_2006_10" x1="573.556" y1="78.3992" x2="573.556" y2="160.4" gradientUnits="userSpaceOnUse">
<stop stop-color="#E0FF04"/>
<stop offset="1" stop-color="#4FFFE3"/>
</linearGradient>
</defs>
</svg>
