<svg width="46" height="45" viewBox="0 0 46 45" fill="none" xmlns="http://www.w3.org/2000/svg">
<path d="M32.4402 28.3019H30.39L29.6634 27.6072C32.2067 24.6741 33.7378 20.8662 33.7378 16.7238C33.7378 7.48714 26.1858 0 16.8689 0C7.55209 0 0 7.48714 0 16.7238C0 25.9605 7.55209 33.4477 16.8689 33.4477C21.0472 33.4477 24.8881 31.9297 27.8467 29.4082L28.5474 30.1286V32.1612L41.5235 45L45.3904 41.1664L32.4402 28.3019ZM16.8689 28.3019C10.4068 28.3019 5.19044 23.1304 5.19044 16.7238C5.19044 10.3173 10.4068 5.1458 16.8689 5.1458C23.331 5.1458 28.5474 10.3173 28.5474 16.7238C28.5474 23.1304 23.331 28.3019 16.8689 28.3019Z" fill="url(#paint0_linear_2005_7)"/>
<defs>
<linearGradient id="paint0_linear_2005_7" x1="22.6952" y1="0" x2="22.6952" y2="45" gradientUnits="userSpaceOnUse">
<stop stop-color="#E0FF04"/>
<stop offset="1" stop-color="#4FFFE3"/>
</linearGradient>
</defs>
</svg>
